<!DOCTYPE svg PUBLIC "-//W3C//DTD SVG 20010904//EN" "http://www.w3.org/TR/2001/REC-SVG-20010904/DTD/svg10.dtd">
<svg version="1.0" xmlns="http://www.w3.org/2000/svg" width="1600px" height="128px" viewBox="0 0 16000 1280" preserveAspectRatio="xMidYMid meet">
<g id="layer101" fill="#1b5fc8" stroke="none">
 <path d="M10123 1268 c0 -7 -21 -81 -47 -165 -25 -83 -46 -159 -46 -168 0 -19 318 -703 330 -710 4 -3 173 -53 376 -112 343 -100 376 -108 464 -109 52 -2 86 0 75 3 -11 2 -130 36 -265 75 -135 39 -327 94 -428 122 -100 29 -187 57 -192 62 -5 5 -79 157 -165 338 l-155 329 46 156 c26 86 51 164 56 174 7 14 4 17 -20 17 -16 0 -29 -5 -29 -12z"/>
 <path d="M10290 1273 c14 -2 75 -18 137 -34 61 -16 115 -29 120 -29 4 0 13 16 19 35 11 34 10 35 -17 35 -15 0 -29 -6 -32 -12 -3 -10 -9 -10 -26 0 -13 8 -57 12 -123 11 -57 -1 -92 -4 -78 -6z"/>
 <path d="M11232 1255 c38 -13 72 -26 77 -30 36 -22 795 -298 954 -347 46 -15 67 -26 67 -37 0 -9 -54 -202 -119 -429 -114 -396 -117 -412 -96 -412 20 0 30 30 140 415 94 331 122 415 135 415 9 0 50 -11 91 -25 201 -69 1018 -304 1214 -349 39 -9 135 -32 215 -51 241 -57 356 -82 560 -124 180 -37 508 -101 590 -116 65 -11 305 -55 360 -65 30 -5 120 -22 200 -36 80 -14 191 -34 246 -45 136 -25 134 -26 134 15 0 33 -2 34 -47 41 -27 3 -64 10 -83 15 -19 5 -100 23 -180 40 -356 74 -695 150 -985 220 -454 110 -906 225 -1005 255 -25 7 -106 30 -180 50 -542 147 -1282 375 -1740 536 l-235 83 -190 3 -190 3 67 -25z"/>
 <path d="M12100 1260 c6 -12 21 -20 35 -20 14 0 29 8 35 20 10 19 8 20 -35 20 -43 0 -45 -1 -35 -20z"/>
 <path d="M12463 1273 c15 -2 37 -2 50 0 12 2 0 4 -28 4 -27 0 -38 -2 -22 -4z"/>
 <path d="M12700 1247 c55 -93 180 -96 243 -7 l28 40 -38 0 c-30 0 -40 -5 -48 -22 -6 -13 -22 -27 -37 -32 -36 -13 -80 2 -93 32 -7 16 -18 22 -42 22 l-32 0 19 -33z"/>
 <path d="M13033 1254 c-53 -60 -14 -142 76 -163 51 -11 71 -6 71 20 0 15 -7 19 -31 19 -17 0 -40 5 -52 11 -65 35 -39 81 53 94 25 4 59 15 75 26 l30 19 -100 0 c-95 0 -101 -2 -122 -26z"/>
 <path d="M13465 1268 c10 -27 -34 -58 -80 -58 -42 0 -92 -29 -105 -60 -17 -42 2 -96 43 -117 48 -25 94 -32 112 -19 19 13 10 50 -11 42 -7 -3 -29 0 -48 5 -26 7 -38 17 -42 35 -11 43 14 59 98 63 39 2 88 49 93 89 3 31 2 32 -30 32 -23 0 -33 -4 -30 -12z"/>
 <path d="M13753 1244 c-7 -3 -13 -17 -13 -30 0 -23 3 -24 39 -18 46 7 123 -23 141 -56 17 -32 3 -79 -32 -100 -16 -10 -59 -21 -95 -25 -55 -6 -71 -12 -102 -40 -32 -30 -36 -39 -35 -80 2 -80 59 -132 159 -142 54 -6 55 -5 55 21 0 23 -4 26 -34 26 -45 0 -79 13 -105 41 -47 51 -8 105 88 120 125 20 165 53 165 138 0 56 -22 90 -77 121 -36 21 -129 35 -154 24z"/>
 <path d="M10690 1164 c-6 -14 -10 -30 -10 -35 0 -5 -6 -25 -14 -43 l-14 -34 -189 54 c-103 30 -193 52 -198 50 -10 -3 -55 -142 -55 -169 0 -7 58 -143 129 -302 l129 -290 79 -24 c124 -37 106 -57 182 206 37 128 70 235 74 239 3 3 20 1 38 -5 51 -18 57 -14 73 44 33 111 33 111 -10 125 -22 7 -42 15 -46 19 -4 3 2 35 13 70 11 36 16 68 12 71 -10 10 -147 50 -167 50 -9 0 -21 -12 -26 -26z m-180 -258 c66 -18 86 -27 87 -42 4 -26 -50 -205 -61 -207 -9 -2 -126 245 -126 265 0 11 4 11 100 -16z"/>
 <path d="M14125 1126 c-60 -27 -105 -104 -105 -180 0 -16 9 -49 21 -73 42 -88 172 -113 227 -44 23 29 53 92 48 100 -3 4 -49 21 -103 36 -125 36 -132 42 -98 83 37 44 83 51 152 22 45 -18 57 -20 63 -9 12 18 5 26 -39 49 -52 26 -128 34 -166 16z m49 -196 c38 -11 71 -22 74 -24 8 -9 -28 -56 -52 -67 -36 -17 -93 12 -112 56 -25 60 -14 65 90 35z"/>
 <path d="M14391 906 c-24 -85 -40 -159 -36 -165 11 -18 37 -12 42 9 7 26 20 26 28 0 8 -26 53 -60 71 -53 25 9 16 47 -16 65 -43 24 -47 58 -20 157 31 118 31 135 0 139 -24 3 -27 -3 -69 -152z"/>
 <path d="M11316 958 c-8 -29 -38 -134 -66 -233 -71 -254 -61 -239 -118 -179 -52 55 -124 114 -140 114 -10 0 -39 -86 -49 -146 -4 -24 0 -34 20 -47 78 -51 177 -191 177 -249 0 -11 13 -21 38 -27 20 -6 59 -17 87 -25 27 -9 53 -12 56 -8 7 7 20 50 88 287 17 61 56 197 87 304 30 106 52 197 47 201 -9 9 -180 60 -200 60 -7 0 -19 -24 -27 -52z"/>
 <path d="M14651 835 c-56 -74 -101 -139 -101 -144 0 -10 24 -21 44 -21 10 0 116 143 156 210 16 26 21 3 26 -112 6 -140 9 -155 35 -163 32 -10 38 4 28 70 -4 33 -11 103 -15 155 -9 123 -8 120 -25 131 -32 20 -50 5 -148 -126z"/>
 <path d="M14975 838 c-10 -35 -29 -100 -42 -145 -29 -95 -28 -118 6 -118 22 0 27 11 67 150 24 83 41 156 39 163 -2 6 -15 12 -28 12 -21 0 -26 -8 -42 -62z"/>
 <path d="M15208 830 c-81 -15 -128 -79 -129 -176 -1 -70 31 -123 93 -153 45 -22 112 -28 122 -12 9 13 -4 42 -18 39 -32 -6 -87 15 -110 43 -44 52 -31 154 26 193 29 21 88 20 133 -1 31 -15 37 -15 45 -3 25 40 -80 85 -162 70z"/>
 <path d="M11955 818 c-2 -7 -34 -116 -70 -243 -36 -126 -67 -237 -70 -244 -4 -11 -21 1 -59 41 -63 66 -133 115 -145 102 -5 -5 -18 -43 -30 -84 l-21 -75 23 -20 c12 -11 37 -32 54 -46 50 -42 101 -116 119 -173 12 -38 24 -58 41 -65 34 -16 170 -14 170 2 1 16 36 143 133 477 43 151 76 278 72 282 -8 8 -180 58 -199 58 -8 0 -16 -6 -18 -12z"/>
 <path d="M15462 733 c-51 -25 -87 -94 -87 -170 0 -47 5 -68 21 -89 32 -44 68 -66 115 -71 73 -7 139 49 143 119 l1 32 -85 22 c-123 33 -132 38 -119 67 25 56 101 72 171 36 35 -18 43 -19 55 -7 12 12 11 17 -6 32 -48 44 -151 58 -209 29z m63 -191 c67 -20 79 -39 44 -71 -25 -23 -69 -27 -101 -10 -41 22 -59 117 -19 105 9 -3 43 -14 76 -24z"/>
 <path d="M15766 665 c-22 -23 -12 -35 30 -35 75 0 122 -52 83 -91 -10 -10 -22 -19 -26 -20 -8 -1 -20 -3 -80 -14 -39 -7 -73 -48 -73 -87 0 -43 53 -93 107 -103 48 -8 63 -2 63 26 0 15 -7 19 -33 19 -46 0 -79 25 -75 58 3 27 17 34 100 47 49 8 77 32 87 77 15 66 -32 114 -130 133 -27 5 -40 2 -53 -10z"/>
 <path d="M12677 633 c-4 -7 -125 -424 -147 -508 -5 -16 -15 -51 -23 -78 l-15 -47 117 0 118 0 58 205 c31 113 61 208 66 211 5 2 86 -18 181 -46 94 -27 175 -50 180 -50 12 0 52 141 42 150 -5 5 -128 43 -274 85 -146 42 -272 78 -282 81 -9 3 -18 1 -21 -3z"/>
 <path d="M14882 508 c-18 -18 -14 -46 9 -58 26 -14 49 3 49 35 0 32 -35 46 -58 23z"/>
 <path d="M13487 379 c-82 -19 -163 -82 -200 -156 -17 -33 -43 -145 -46 -190 l-1 -33 142 1 c79 1 132 4 118 6 -58 10 -131 36 -123 43 4 4 37 18 73 31 36 13 68 27 71 31 3 5 3 43 1 84 -3 49 -1 75 6 73 5 -2 31 -30 56 -61 26 -32 51 -58 55 -58 4 0 40 11 79 24 40 14 72 20 72 15 0 -6 -18 -36 -40 -66 -45 -64 -47 -69 -21 -100 18 -21 27 -23 126 -23 l108 0 -5 70 c-10 140 -88 234 -235 285 -76 27 -179 37 -236 24z"/>
 <path d="M14223 139 c-53 -21 -108 -64 -138 -111 l-17 -28 295 0 295 0 6 23 c8 31 -29 59 -129 99 -104 41 -232 48 -312 17z"/>
 </g>
<g id="layer102" fill="#2d6ccc" stroke="none">
 <path d="M10095 1164 c-20 -66 -43 -139 -51 -163 -8 -25 -14 -53 -14 -64 0 -20 318 -704 330 -712 13 -8 734 -213 770 -219 19 -3 31 -4 25 -1 -11 5 -555 162 -693 200 -46 12 -87 26 -93 32 -5 5 -81 162 -168 350 l-160 341 50 172 c28 95 48 174 45 177 -2 3 -21 -48 -41 -113z"/>
 <path d="M10143 1238 c-6 -24 -27 -98 -47 -165 -20 -67 -36 -129 -36 -136 0 -13 91 -212 236 -516 35 -73 64 -137 64 -141 0 -24 77 -51 455 -159 231 -67 427 -121 435 -121 33 1 -20 19 -230 79 -525 150 -621 178 -630 187 -5 5 -79 157 -165 338 l-155 329 50 167 c54 181 54 180 42 180 -5 0 -13 -19 -19 -42z"/>
 <path d="M10326 1271 c10 -10 223 -66 228 -60 2 2 6 20 10 39 l6 35 -11 -30 c-7 -16 -12 -31 -13 -32 -1 -1 -48 12 -105 28 -111 31 -131 34 -115 20z"/>
 <path d="M10401 1276 c9 -9 115 -33 127 -29 6 3 12 12 12 20 0 12 -3 13 -14 4 -10 -8 -26 -9 -57 -2 -46 11 -75 14 -68 7z"/>
 <path d="M11206 1271 c10 -10 17 -13 314 -127 208 -81 631 -232 743 -266 40 -13 67 -27 67 -35 0 -7 -52 -194 -115 -416 -106 -371 -124 -439 -110 -425 5 5 46 142 99 333 13 44 51 178 86 298 35 123 59 222 54 227 -5 4 -76 31 -159 59 -148 51 -341 119 -525 188 -52 19 -120 44 -150 54 -30 11 -66 26 -80 33 -14 7 -50 21 -80 31 -30 10 -72 26 -92 36 -40 20 -69 25 -52 10z"/>
 <path d="M11520 1266 c14 -8 57 -24 95 -36 39 -13 117 -39 175 -60 105 -38 534 -178 685 -224 44 -13 159 -49 255 -79 284 -90 792 -234 1057 -301 76 -19 215 -55 308 -80 253 -67 716 -180 1015 -246 430 -95 529 -116 595 -129 50 -9 229 -46 273 -57 14 -3 21 -1 18 5 -3 5 -25 12 -49 16 -23 4 -58 11 -77 15 -19 5 -100 23 -180 40 -356 74 -695 150 -985 220 -454 110 -906 225 -1005 255 -25 7 -106 30 -180 50 -512 139 -1183 345 -1730 530 -135 46 -256 86 -270 89 l-25 7 25 -15z"/>
 <path d="M12102 1264 c5 -28 62 -27 66 1 2 18 2 18 -8 3 -14 -22 -24 -23 -45 -1 -16 16 -17 15 -13 -3z"/>
 <path d="M12690 1278 c0 -21 27 -61 54 -77 48 -29 88 -34 132 -16 40 16 88 71 77 88 -3 5 -12 -4 -20 -20 -16 -34 -62 -64 -101 -65 -28 -1 -102 29 -102 41 -1 9 -40 57 -40 49z"/>
 <path d="M12726 1268 c15 -27 40 -51 61 -59 30 -11 89 7 108 34 25 36 17 41 -14 8 -39 -41 -80 -42 -123 -1 -33 32 -44 38 -32 18z"/>
 <path d="M13054 1266 c-35 -15 -44 -32 -44 -80 0 -42 41 -82 99 -95 51 -11 71 -6 71 20 0 15 -7 19 -31 19 -17 0 -40 5 -52 11 -65 35 -39 81 53 94 51 8 80 21 80 37 0 7 -4 7 -14 -1 -7 -6 -40 -16 -72 -22 -33 -6 -67 -18 -76 -26 -44 -39 -3 -103 64 -103 26 0 37 -4 32 -11 -4 -7 -23 -9 -48 -6 -48 7 -96 53 -96 92 0 29 30 62 62 69 13 3 32 7 43 9 13 3 9 5 -10 5 -16 1 -44 -5 -61 -12z"/>
 <path d="M13467 1259 c-7 -28 -43 -49 -83 -49 -41 0 -91 -29 -104 -60 -17 -42 2 -96 43 -117 48 -25 94 -32 112 -19 19 13 10 50 -11 42 -7 -3 -29 0 -48 5 -26 7 -38 17 -42 35 -9 36 14 55 72 60 27 3 60 13 74 23 35 25 54 66 41 88 -9 16 -10 15 -11 -5 0 -52 -51 -92 -118 -92 -44 0 -85 -36 -77 -68 9 -35 44 -61 84 -62 25 0 32 -3 24 -11 -14 -14 -72 -2 -100 21 -28 22 -45 64 -36 87 11 29 44 53 72 53 74 0 128 36 119 78 -3 12 -6 10 -11 -9z"/>
 <path d="M13753 1244 c-7 -3 -13 -17 -13 -30 0 -23 3 -24 39 -18 46 7 123 -23 141 -56 17 -32 3 -79 -32 -100 -16 -10 -59 -21 -95 -25 -55 -6 -71 -12 -102 -40 -32 -30 -36 -39 -35 -80 2 -80 59 -132 159 -142 54 -6 55 -5 55 21 0 23 -4 26 -34 26 -45 0 -79 13 -105 41 -47 51 -8 105 88 120 125 20 165 53 165 138 0 56 -22 90 -77 121 -36 21 -129 35 -154 24z m134 -31 c76 -35 106 -104 73 -167 -21 -38 -58 -57 -129 -67 -73 -10 -106 -26 -120 -55 -33 -74 18 -134 115 -134 24 0 34 -4 32 -12 -7 -19 -87 -10 -126 14 -44 27 -62 56 -62 101 0 69 46 98 191 122 45 7 68 31 76 79 11 68 -48 116 -142 116 -42 0 -61 13 -32 23 20 7 90 -4 124 -20z"/>
 <path d="M10690 1164 c-6 -14 -10 -30 -10 -35 0 -5 -6 -25 -14 -43 l-14 -34 -189 54 c-103 30 -193 52 -198 50 -10 -3 -55 -142 -55 -169 0 -7 58 -143 129 -302 l129 -290 79 -24 c124 -37 106 -57 182 206 37 128 70 235 74 239 3 3 20 1 38 -5 51 -18 57 -14 73 44 33 111 33 111 -10 125 -22 7 -42 15 -46 19 -4 3 2 35 13 70 11 36 16 68 12 71 -10 10 -147 50 -167 50 -9 0 -21 -12 -26 -26z m108 -10 c31 -9 60 -19 64 -23 4 -3 1 -28 -7 -55 -25 -82 -22 -94 30 -108 25 -7 44 -17 41 -23 -2 -6 -12 -38 -21 -72 l-17 -60 -42 12 c-24 7 -47 10 -53 7 -5 -4 -35 -97 -67 -207 -78 -271 -76 -265 -91 -265 -13 0 -147 39 -153 45 -2 2 -61 132 -131 290 l-129 286 21 80 c12 43 25 79 30 79 4 0 86 -22 182 -50 183 -53 213 -58 220 -37 2 6 11 38 20 70 13 43 21 57 31 53 8 -3 40 -13 72 -22z"/>
 <path d="M10394 925 c10 -40 117 -277 133 -295 12 -13 15 -13 23 0 10 16 70 228 70 247 0 11 -126 55 -201 70 -31 6 -32 5 -25 -22z m116 -19 c66 -18 86 -27 87 -42 4 -26 -50 -205 -61 -207 -9 -2 -126 245 -126 265 0 11 4 11 100 -16z"/>
 <path d="M14125 1126 c-60 -27 -105 -104 -105 -180 0 -16 9 -49 21 -73 42 -88 172 -113 227 -44 23 29 53 92 48 100 -3 4 -49 21 -103 36 -125 36 -132 42 -98 83 37 44 83 51 152 22 45 -18 57 -20 63 -9 12 18 5 26 -39 49 -52 26 -128 34 -166 16z m163 -29 c47 -26 39 -39 -10 -17 -64 29 -121 26 -157 -7 -17 -16 -33 -40 -36 -55 -7 -29 -23 -22 160 -74 30 -8 55 -17 55 -20 0 -21 -33 -75 -61 -98 -28 -24 -40 -27 -75 -23 -107 12 -156 118 -106 230 22 49 49 75 88 86 36 9 100 -1 142 -22z"/>
 <path d="M14065 947 c-7 -28 9 -75 37 -104 33 -35 91 -31 129 7 50 49 38 71 -51 97 -96 28 -108 28 -115 0z m109 -17 c38 -11 71 -22 74 -24 8 -9 -28 -56 -52 -67 -36 -17 -93 12 -112 56 -25 60 -14 65 90 35z"/>
 <path d="M14391 906 c-24 -85 -40 -159 -36 -165 11 -18 37 -12 42 9 7 26 20 26 28 0 8 -26 53 -60 71 -53 25 9 16 47 -16 65 -43 24 -47 58 -20 157 31 118 31 135 0 139 -24 3 -27 -3 -69 -152z m61 52 c-20 -68 -26 -107 -23 -152 1 -10 17 -34 36 -52 21 -19 31 -35 25 -39 -15 -10 -39 13 -56 53 -12 29 -16 32 -29 22 -8 -7 -15 -19 -15 -26 0 -8 -7 -14 -16 -14 -10 0 -14 5 -10 15 3 9 13 44 21 78 17 65 54 186 62 200 3 5 10 4 16 -2 7 -7 4 -32 -11 -83z"/>
 <path d="M11316 958 c-8 -29 -38 -134 -66 -233 -71 -254 -61 -239 -118 -179 -52 55 -124 114 -140 114 -10 0 -39 -86 -49 -146 -4 -24 0 -34 20 -47 78 -51 177 -191 177 -249 0 -11 13 -21 38 -27 20 -6 58 -17 84 -25 27 -8 46 -11 43 -7 -2 5 -38 18 -78 30 -67 20 -75 25 -80 51 -16 77 -98 190 -175 240 l-24 15 23 77 23 77 40 -31 c23 -18 65 -57 93 -87 33 -35 56 -52 61 -46 5 6 33 93 62 195 28 102 61 215 71 251 l20 66 97 -28 c82 -23 96 -30 94 -45 -2 -11 -19 -71 -37 -134 -18 -63 -54 -187 -79 -275 -25 -88 -58 -199 -72 -247 -14 -48 -24 -93 -22 -99 2 -6 17 33 32 87 16 55 41 142 56 194 104 356 140 494 133 501 -9 8 -180 59 -200 59 -7 0 -19 -24 -27 -52z"/>
 <path d="M14651 835 c-56 -74 -101 -139 -101 -144 0 -14 49 -26 59 -15 18 20 133 187 138 200 7 20 23 17 23 -3 0 -13 3 -14 11 -6 14 14 5 43 -14 43 -8 0 -36 -33 -63 -72 -26 -40 -51 -75 -54 -78 -4 -3 -15 -20 -25 -37 -13 -22 -27 -33 -43 -33 l-23 0 28 38 c15 20 40 53 56 72 15 19 31 40 35 45 4 6 24 33 45 62 27 37 42 50 56 46 16 -4 20 -22 31 -129 7 -69 17 -127 23 -131 6 -4 8 0 4 9 -3 9 -9 62 -13 119 -8 133 -8 129 -25 140 -32 20 -50 5 -148 -126z"/>
 <path d="M14975 838 c-10 -35 -29 -100 -42 -145 -29 -95 -28 -118 6 -118 22 0 27 11 67 150 24 83 41 156 39 163 -2 6 -15 12 -28 12 -21 0 -26 -8 -42 -62z m60 25 c-4 -10 -22 -74 -42 -143 -38 -134 -42 -143 -60 -132 -8 5 0 47 29 150 35 120 44 142 61 142 14 0 17 -4 12 -17z"/>
 <path d="M12360 828 c-5 -13 -59 -198 -120 -413 -61 -215 -113 -397 -115 -405 -4 -12 -3 -12 7 1 7 9 64 197 127 418 91 320 118 401 131 401 9 0 50 -11 91 -25 201 -69 1018 -304 1214 -349 39 -9 135 -32 215 -51 241 -57 356 -82 560 -124 180 -37 508 -101 590 -116 58 -10 301 -54 360 -65 230 -42 398 -71 553 -95 15 -3 27 0 27 5 0 6 -12 10 -26 10 -14 0 -44 4 -67 9 -23 5 -76 15 -117 21 -41 6 -106 17 -145 25 -38 7 -104 18 -145 25 -41 6 -104 17 -140 24 -36 8 -108 22 -160 31 -52 9 -123 23 -157 31 -34 8 -72 14 -84 14 -11 0 -51 6 -88 14 -36 8 -102 22 -146 31 -44 8 -114 22 -155 31 -41 9 -97 20 -125 25 -49 9 -83 17 -355 78 -74 16 -151 33 -170 36 -19 4 -73 17 -120 30 -47 13 -152 40 -235 59 -82 20 -188 47 -235 60 -278 78 -561 163 -734 220 -109 36 -204 66 -212 66 -8 0 -19 -10 -24 -22z"/>
 <path d="M14777 753 c4 -123 8 -140 34 -148 30 -10 39 5 29 45 l-8 35 -1 -32 c-1 -33 -14 -43 -27 -22 -3 6 -9 54 -11 108 -7 127 -20 139 -16 14z"/>
 <path d="M15208 830 c-81 -15 -128 -79 -129 -176 -1 -70 31 -123 93 -153 45 -22 112 -28 122 -12 9 13 -4 42 -18 39 -32 -6 -87 15 -110 43 -44 52 -31 154 26 193 29 21 88 20 133 -1 31 -15 37 -15 45 -3 25 40 -80 85 -162 70z m112 -27 c22 -10 40 -21 40 -25 0 -10 4 -10 -54 7 -65 20 -115 7 -149 -38 -69 -91 -34 -201 73 -228 60 -15 67 -34 9 -26 -111 15 -175 120 -136 222 37 96 121 129 217 88z"/>
 <path d="M11955 818 c-2 -7 -34 -116 -70 -243 -36 -126 -67 -237 -70 -244 -4 -11 -21 1 -59 41 -63 66 -133 115 -145 102 -5 -5 -18 -43 -30 -84 l-21 -75 23 -20 c12 -11 37 -32 54 -46 49 -41 100 -114 119 -171 18 -57 28 -68 59 -67 16 0 15 2 -6 10 -19 7 -29 21 -38 52 -24 81 -95 176 -169 225 -25 16 -25 17 4 120 l16 52 40 -32 c23 -18 65 -57 94 -87 29 -31 56 -52 59 -49 4 3 38 116 76 250 38 133 71 248 74 255 4 13 186 -36 192 -53 2 -6 -44 -176 -102 -379 -58 -202 -104 -370 -101 -372 5 -6 11 14 122 402 47 165 90 313 95 329 5 17 6 33 2 37 -9 9 -181 59 -200 59 -8 0 -16 -6 -18 -12z"/>
 <path d="M15462 733 c-51 -25 -87 -94 -87 -170 0 -47 5 -68 21 -89 32 -44 68 -66 115 -71 73 -7 139 49 143 119 l1 32 -85 22 c-123 33 -132 38 -119 67 25 56 101 72 171 36 35 -18 43 -19 55 -7 12 12 11 17 -6 32 -48 44 -151 58 -209 29z m151 -15 c60 -25 62 -26 55 -33 -2 -3 -30 4 -62 15 -35 12 -69 17 -87 13 -56 -11 -111 -88 -78 -108 5 -4 54 -19 107 -35 89 -25 97 -29 94 -51 -7 -59 -62 -102 -129 -101 -39 0 -51 6 -82 36 -35 36 -36 38 -36 114 0 87 18 121 78 154 43 23 78 22 140 -4z"/>
 <path d="M15414 565 c-11 -27 17 -95 48 -118 34 -25 90 -16 125 21 37 40 27 64 -34 84 -88 30 -132 33 -139 13z m111 -23 c67 -20 79 -39 44 -71 -25 -23 -69 -27 -101 -10 -41 22 -59 117 -19 105 9 -3 43 -14 76 -24z"/>
 <path d="M15766 665 c-22 -23 -12 -35 30 -35 75 0 122 -52 83 -91 -10 -10 -22 -19 -26 -20 -8 -1 -20 -3 -80 -14 -39 -7 -73 -48 -73 -87 0 -43 53 -93 107 -103 48 -8 63 -2 63 26 0 15 -7 19 -33 19 -46 0 -79 25 -75 58 3 27 17 34 100 47 49 8 77 32 87 77 15 66 -32 114 -130 133 -27 5 -40 2 -53 -10z m103 -21 c52 -21 75 -55 66 -100 -7 -41 -34 -60 -95 -69 -65 -9 -79 -14 -90 -35 -17 -31 -2 -67 35 -84 19 -9 37 -16 42 -15 26 4 35 -3 14 -12 -34 -13 -106 23 -118 59 -21 64 6 97 90 110 83 13 115 50 87 102 -11 21 -60 40 -101 40 -16 0 -29 5 -29 10 0 15 55 12 99 -6z"/>
 <path d="M12677 633 c-3 -4 -37 -123 -77 -263 -40 -140 -79 -276 -87 -302 -8 -26 -13 -52 -11 -59 2 -6 34 96 72 227 59 209 107 373 112 382 2 5 539 -150 548 -158 8 -8 -8 -94 -22 -117 -5 -8 -55 2 -177 38 -93 27 -177 49 -186 49 -10 0 -20 -8 -23 -17 -75 -256 -116 -406 -112 -410 9 -9 24 35 77 222 27 99 54 184 58 188 5 5 86 -14 182 -42 95 -28 176 -51 181 -51 12 0 52 141 42 150 -5 5 -128 43 -274 85 -146 42 -272 78 -282 81 -9 3 -18 1 -21 -3z"/>
 <path d="M14882 508 c-18 -18 -14 -46 9 -58 26 -14 49 3 49 35 0 32 -35 46 -58 23z m48 -23 c0 -9 -7 -18 -16 -22 -18 -7 -39 11 -30 26 11 17 46 13 46 -4z"/>
 <path d="M13487 379 c-82 -19 -163 -82 -200 -156 -30 -59 -56 -206 -38 -217 4 -3 11 28 13 68 8 116 71 221 163 268 129 67 385 1 468 -120 38 -54 47 -86 47 -158 0 -46 3 -63 11 -58 20 12 4 128 -26 189 -34 69 -107 127 -202 160 -76 27 -179 37 -236 24z"/>
 <path d="M13515 288 c-3 -7 -6 -49 -7 -93 l-3 -80 -75 -26 c-96 -34 -101 -51 -20 -73 34 -10 64 -15 67 -12 3 2 -21 12 -52 21 -31 10 -53 21 -48 25 4 4 37 18 73 31 36 13 68 27 71 31 3 5 3 43 1 84 -3 49 -1 75 6 73 5 -2 31 -30 56 -61 26 -32 51 -58 55 -58 4 0 40 11 79 24 40 14 72 20 72 15 0 -6 -18 -36 -40 -66 -22 -31 -40 -61 -40 -68 0 -6 11 -22 25 -35 29 -27 34 -16 6 14 -19 21 -19 22 30 94 27 40 49 74 49 77 0 12 -56 3 -116 -20 -37 -14 -68 -24 -69 -23 -5 11 -109 138 -112 138 -2 0 -6 -6 -8 -12z"/>
 <path d="M14221 138 c-58 -22 -141 -97 -140 -126 0 -15 2 -14 12 3 19 31 74 83 104 98 38 20 120 35 169 32 62 -4 191 -43 241 -72 38 -22 44 -30 40 -52 -5 -24 -4 -25 9 -6 20 27 18 32 -23 59 -117 77 -303 106 -412 64z"/>
 <path d="M14365 10 l-20 -9 20 0 c11 0 29 4 40 9 l20 9 -20 0 c-11 0 -29 -4 -40 -9z"/>
 <path d="M11843 3 c4 -3 10 -3 14 0 3 4 0 7 -7 7 -7 0 -10 -3 -7 -7z"/>
 <path d="M14453 3 c9 -2 23 -2 30 0 6 3 -1 5 -18 5 -16 0 -22 -2 -12 -5z"/>
 </g>
<g id="layer103" fill="#467dd2" stroke="none">
 <path d="M10152 1248 c-5 -18 -28 -96 -51 -174 l-41 -140 106 -225 c58 -123 128 -273 156 -334 28 -60 54 -113 57 -117 7 -8 447 -138 465 -138 27 0 -22 16 -223 74 -122 35 -226 67 -231 72 -5 5 -79 157 -165 338 l-155 329 51 170 c28 93 48 171 45 174 -2 3 -9 -10 -14 -29z"/>
 <path d="M10325 1273 c11 -11 175 -56 182 -50 2 3 -33 15 -78 27 -45 12 -89 24 -98 27 -11 4 -13 3 -6 -4z"/>
 <path d="M10423 1273 c4 -3 10 -3 14 0 3 4 0 7 -7 7 -7 0 -10 -3 -7 -7z"/>
 <path d="M10525 1270 c-4 -6 -22 -8 -43 -6 l-37 5 38 -10 c28 -8 42 -8 50 0 6 6 8 13 5 16 -3 4 -9 1 -13 -5z"/>
 <path d="M11200 1274 c0 -6 65 -34 77 -34 9 1 -58 39 -69 40 -5 0 -8 -2 -8 -6z"/>
 <path d="M11503 1273 c4 -3 10 -3 14 0 3 4 0 7 -7 7 -7 0 -10 -3 -7 -7z"/>
 <path d="M12102 1265 c2 -15 11 -20 33 -20 22 0 31 5 33 20 2 18 2 18 -8 3 -6 -10 -17 -18 -25 -18 -8 0 -19 8 -25 18 -10 15 -10 15 -8 -3z"/>
 <path d="M12690 1278 c0 -19 26 -60 48 -74 30 -20 85 -37 77 -23 -4 5 -14 9 -23 9 -25 0 -61 28 -83 64 -10 17 -19 28 -19 24z"/>
 <path d="M12879 1249 c-34 -38 -80 -39 -115 -4 -35 36 -44 31 -9 -5 39 -40 83 -41 127 -1 18 16 31 32 28 34 -3 3 -17 -8 -31 -24z"/>
 <path d="M13083 1273 c4 -3 10 -3 14 0 3 4 0 7 -7 7 -7 0 -10 -3 -7 -7z"/>
 <path d="M13471 1270 c-2 -26 -17 -41 -57 -55 -21 -8 -31 -14 -22 -15 46 -1 97 43 84 73 -3 8 -5 6 -5 -3z"/>
 <path d="M13510 1252 c0 -44 -41 -82 -86 -82 -18 0 -35 -4 -39 -9 -9 -16 68 -1 95 18 35 25 54 66 41 88 -9 15 -10 12 -11 -15z"/>
 <path d="M10560 1260 c0 -7 3 -10 7 -7 3 4 3 10 0 14 -4 3 -7 0 -7 -7z"/>
 <path d="M11550 1258 c60 -25 463 -159 466 -155 5 5 -469 167 -483 166 -4 0 3 -5 17 -11z"/>
 <path d="M12931 1239 c-13 -17 -38 -37 -57 -45 -19 -8 -34 -17 -34 -19 0 -3 16 2 36 10 36 15 53 30 75 68 16 27 5 20 -20 -14z"/>
 <path d="M13030 1250 c-11 -11 -19 -30 -19 -42 l2 -23 4 22 c2 13 16 32 30 43 14 11 21 20 14 20 -6 0 -20 -9 -31 -20z"/>
 <path d="M13205 1260 c-3 -5 -15 -10 -25 -10 -10 0 -21 -4 -25 -9 -3 -6 7 -6 27 -1 34 10 61 30 41 30 -7 0 -15 -4 -18 -10z"/>
 <path d="M10077 1106 c-26 -85 -47 -162 -47 -172 0 -29 323 -705 341 -715 10 -5 24 -9 31 -8 7 0 1 5 -14 10 -26 10 -64 85 -311 621 l-41 88 48 161 c26 89 45 163 43 165 -2 2 -25 -65 -50 -150z"/>
 <path d="M13835 1241 c2 -5 18 -11 34 -14 16 -4 48 -24 70 -45 23 -21 41 -36 41 -33 -1 11 -35 47 -61 65 -30 19 -92 39 -84 27z"/>
 <path d="M10550 1231 c0 -5 -8 -12 -17 -14 -14 -4 -12 -5 5 -6 13 -1 22 5 22 14 0 8 -2 15 -5 15 -3 0 -5 -4 -5 -9z"/>
 <path d="M11302 1231 c26 -17 280 -112 285 -108 2 3 -17 13 -44 23 -26 9 -84 32 -128 49 -92 37 -140 52 -113 36z"/>
 <path d="M13072 1220 c-12 -12 -22 -25 -22 -30 0 -35 47 -70 95 -70 28 0 34 -15 9 -24 -9 -4 -15 -9 -12 -11 11 -11 38 8 38 26 0 15 -7 19 -31 19 -32 0 -69 15 -81 34 -14 21 -8 36 25 56 17 11 25 20 16 20 -8 0 -25 -9 -37 -20z"/>
 <path d="M13741 1217 c-1 -26 0 -27 38 -21 46 7 123 -23 141 -56 18 -33 3 -79 -33 -101 -18 -10 -27 -19 -20 -19 22 0 63 45 69 76 12 60 -77 123 -157 112 -22 -4 -29 0 -32 16 -3 16 -5 14 -6 -7z"/>
 <path d="M13324 1194 c-17 -8 -37 -27 -43 -42 -11 -25 -10 -24 14 6 15 17 33 32 40 32 8 0 17 5 20 10 8 13 6 13 -31 -6z"/>
 <path d="M10690 1164 c-6 -14 -10 -30 -10 -35 0 -5 -6 -25 -14 -43 l-14 -34 -188 54 c-103 30 -190 52 -192 49 -6 -6 -15 -3 201 -64 98 -28 183 -49 188 -46 5 3 16 32 25 63 9 31 20 61 24 66 13 13 160 -34 160 -51 0 -8 -7 -40 -16 -70 -9 -30 -12 -59 -8 -63 5 -4 26 -13 47 -20 20 -6 37 -15 37 -18 0 -4 -8 -36 -19 -72 -12 -42 -23 -65 -32 -64 -8 1 -31 5 -51 9 l-37 7 -22 -74 c-12 -40 -43 -147 -69 -238 -44 -157 -48 -165 -71 -163 l-24 2 23 -11 c14 -7 26 -8 31 -2 4 5 36 108 70 230 35 122 67 227 71 234 6 10 15 10 40 1 52 -18 58 -14 74 44 33 111 33 111 -10 125 -22 7 -42 15 -46 19 -4 3 2 35 13 70 11 36 16 68 12 71 -10 10 -147 50 -167 50 -9 0 -21 -12 -26 -26z"/>
 <path d="M13011 1171 c-1 -16 47 -71 62 -71 5 0 -3 10 -17 21 -15 12 -32 31 -36 43 -5 12 -9 15 -9 7z"/>
 <path d="M13337 1142 c-10 -10 -17 -28 -17 -40 0 -22 35 -52 60 -51 8 0 3 5 -13 11 -38 14 -47 55 -17 80 12 10 18 18 13 18 -6 0 -17 -8 -26 -18z"/>
 <path d="M10232 1075 c-12 -41 -22 -80 -22 -87 0 -13 248 -577 259 -590 3 -4 20 -10 36 -13 l30 -7 -33 19 c-30 16 -46 48 -158 298 l-126 280 22 84 c11 46 19 85 17 87 -2 2 -13 -30 -25 -71z"/>
 <path d="M14125 1126 c-40 -17 -82 -67 -94 -113 -11 -37 -6 -62 4 -27 17 57 53 110 83 126 55 27 59 37 7 14z"/>
 <path d="M14273 1108 c26 -11 47 -27 47 -34 0 -17 -8 -17 -40 1 -14 8 -32 14 -40 14 -8 0 7 -9 33 -21 40 -18 50 -19 57 -8 5 8 6 18 4 22 -7 12 -81 48 -96 48 -7 -1 8 -10 35 -22z"/>
 <path d="M11638 1100 c45 -20 350 -130 361 -130 15 1 -33 21 -139 58 -63 23 -137 49 -165 60 -72 28 -108 36 -57 12z"/>
 <path d="M13282 1080 c6 -20 24 -38 49 -51 49 -24 51 -18 4 10 -19 11 -40 32 -45 46 -14 36 -21 31 -8 -5z"/>
 <path d="M12120 1066 c119 -43 460 -149 465 -144 4 4 -502 167 -540 175 -11 2 23 -12 75 -31z"/>
 <path d="M13098 1093 c7 -3 16 -2 19 1 4 3 -2 6 -13 5 -11 0 -14 -3 -6 -6z"/>
 <path d="M14155 1090 c-26 -10 -65 -48 -65 -61 0 -6 11 3 25 20 17 19 41 33 68 39 26 6 33 10 17 10 -14 1 -34 -3 -45 -8z"/>
 <path d="M13427 1041 c4 -15 -1 -20 -24 -23 -25 -3 -26 -4 -6 -10 29 -8 56 12 47 35 -9 23 -23 22 -17 -2z"/>
 <path d="M13960 1035 c-13 -24 -65 -55 -93 -55 -9 0 -18 -4 -22 -10 -3 -5 16 -3 42 5 44 13 93 53 93 76 0 15 -6 11 -20 -16z"/>
 <path d="M14431 1043 c0 -10 3 -13 6 -5 5 14 29 16 37 3 3 -5 -5 -46 -19 -92 -36 -122 -31 -172 21 -199 12 -7 25 -22 27 -34 4 -18 4 -17 6 4 1 18 -7 30 -29 42 -43 24 -47 58 -20 157 32 120 32 135 -2 139 -22 3 -28 -1 -27 -15z"/>
 <path d="M13818 1013 c7 -3 16 -2 19 1 4 3 -2 6 -13 5 -11 0 -14 -3 -6 -6z"/>
 <path d="M14416 994 c-4 -14 -5 -28 -3 -31 3 -2 8 8 11 23 4 14 5 28 3 31 -3 2 -8 -8 -11 -23z"/>
 <path d="M11314 954 c-9 -30 -14 -58 -11 -60 3 -3 10 18 17 45 7 28 16 53 21 56 4 3 49 -6 100 -20 50 -14 93 -24 95 -22 5 4 -174 57 -194 57 -6 0 -19 -25 -28 -56z"/>
 <path d="M13697 980 c-19 -17 -37 -39 -40 -50 -7 -29 0 -25 18 11 10 18 33 38 58 50 31 13 36 19 20 19 -12 0 -38 -14 -56 -30z"/>
 <path d="M14085 1000 c3 -5 11 -10 16 -10 6 0 7 5 4 10 -3 6 -11 10 -16 10 -6 0 -7 -4 -4 -10z"/>
 <path d="M14135 980 c11 -5 27 -9 35 -9 9 0 8 4 -5 9 -11 5 -27 9 -35 9 -9 0 -8 -4 5 -9z"/>
 <path d="M12013 963 c4 -3 10 -3 14 0 3 4 0 7 -7 7 -7 0 -10 -3 -7 -7z"/>
 <path d="M13754 956 c-17 -8 -34 -21 -38 -31 -10 -27 -7 -27 17 -1 12 14 38 29 57 35 19 5 26 9 15 10 -11 0 -34 -6 -51 -13z"/>
 <path d="M14076 962 c-12 -12 -5 -17 27 -18 44 -2 147 -33 147 -45 0 -6 -13 -24 -29 -40 -16 -16 -26 -29 -21 -29 10 0 60 58 60 70 0 5 -8 13 -17 18 -30 16 -161 50 -167 44z"/>
 <path d="M14205 960 c11 -5 27 -9 35 -9 9 0 8 4 -5 9 -11 5 -27 9 -35 9 -9 0 -8 -4 5 -9z"/>
 <path d="M14768 963 c13 -3 27 -15 32 -29 12 -29 21 -31 17 -3 -4 24 -24 39 -52 37 -17 -1 -16 -1 3 -5z"/>
 <path d="M12043 953 c4 -3 10 -3 14 0 3 4 0 7 -7 7 -7 0 -10 -3 -7 -7z"/>
 <path d="M12078 942 c7 -5 67 -26 132 -48 71 -23 120 -44 120 -51 0 -7 -52 -196 -116 -419 -64 -223 -114 -407 -111 -410 6 -7 239 814 235 832 -2 11 -46 31 -128 60 -119 42 -160 53 -132 36z"/>
 <path d="M14263 943 c4 -3 10 -3 14 0 3 4 0 7 -7 7 -7 0 -10 -3 -7 -7z"/>
 <path d="M14396 924 c-4 -14 -5 -28 -3 -31 3 -2 8 8 11 23 4 14 5 28 3 31 -3 2 -8 -8 -11 -23z"/>
 <path d="M14660 848 c-79 -106 -94 -128 -86 -128 7 0 168 221 164 225 -1 2 -37 -42 -78 -97z"/>
 <path d="M10390 936 c0 -9 132 -292 140 -300 5 -5 12 -7 15 -4 12 12 72 237 65 247 -7 12 -179 65 -187 57 -4 -4 55 -23 137 -43 23 -6 36 -16 37 -29 4 -27 -50 -205 -62 -206 -11 0 -125 246 -125 269 0 7 -4 13 -10 13 -5 0 -10 -2 -10 -4z"/>
 <path d="M14297 921 c6 -25 -20 -74 -54 -101 -23 -18 -37 -21 -81 -18 -30 3 -47 1 -40 -3 19 -13 86 -11 111 3 53 28 106 138 67 138 -4 0 -6 -8 -3 -19z"/>
 <path d="M11533 915 c-3 -9 -3 -18 -1 -21 3 -3 8 4 11 16 6 23 -1 27 -10 5z"/>
 <path d="M14025 909 c11 -37 44 -86 61 -93 9 -3 2 10 -15 29 -17 20 -31 44 -31 55 0 10 -5 22 -11 26 -8 4 -9 -1 -4 -17z"/>
 <path d="M12603 913 c4 -3 10 -3 14 0 3 4 0 7 -7 7 -7 0 -10 -3 -7 -7z"/>
 <path d="M14070 913 c-1 -40 55 -94 97 -92 10 0 -1 9 -25 19 -30 14 -47 30 -57 52 -8 18 -14 28 -15 21z"/>
 <path d="M12633 903 c4 -3 10 -3 14 0 3 4 0 7 -7 7 -7 0 -10 -3 -7 -7z"/>
 <path d="M14680 795 c-45 -63 -85 -115 -90 -115 -5 0 -16 7 -24 16 -14 14 -16 14 -16 0 0 -18 47 -33 59 -20 18 20 133 188 138 201 3 8 12 12 19 9 16 -6 19 10 5 18 -5 4 -46 -46 -91 -109z"/>
 <path d="M12745 868 c248 -81 972 -284 981 -275 3 2 -24 12 -58 21 -324 89 -446 123 -744 212 -254 75 -344 96 -179 42z"/>
 <path d="M14975 838 c-10 -35 -29 -100 -42 -145 -14 -45 -23 -90 -21 -100 5 -24 52 -25 54 0 1 12 1 13 -3 2 -6 -21 -43 -19 -43 3 1 21 76 282 85 290 3 4 15 0 27 -7 17 -10 19 -10 16 1 -3 7 -16 14 -30 16 -22 3 -26 -3 -43 -60z"/>
 <path d="M13700 877 c0 -24 53 -77 77 -77 12 0 7 6 -14 16 -17 9 -38 30 -47 47 -10 21 -16 26 -16 14z"/>
 <path d="M14810 861 c0 -17 4 -32 8 -35 4 -2 6 11 4 30 -5 42 -12 45 -12 5z"/>
 <path d="M11286 854 c-4 -14 -5 -28 -3 -31 3 -2 8 8 11 23 4 14 5 28 3 31 -3 2 -8 -8 -11 -23z"/>
 <path d="M11516 854 c-4 -14 -5 -28 -3 -31 3 -2 8 8 11 23 4 14 5 28 3 31 -3 2 -8 -8 -11 -23z"/>
 <path d="M14376 854 c-4 -14 -5 -28 -3 -31 3 -2 8 8 11 23 4 14 5 28 3 31 -3 2 -8 -8 -11 -23z"/>
 <path d="M13660 854 c0 -30 76 -94 112 -94 7 0 -7 10 -31 22 -24 11 -52 35 -62 52 -10 17 -19 26 -19 20z"/>
 <path d="M12372 837 c-13 -15 -45 -127 -39 -133 2 -3 13 25 22 61 12 43 23 65 33 65 8 0 84 -22 169 -50 85 -27 160 -50 166 -49 12 1 -202 76 -295 104 -36 10 -49 11 -56 2z"/>
 <path d="M15030 840 c0 -7 3 -10 7 -7 3 4 3 10 0 14 -4 3 -7 0 -7 -7z"/>
 <path d="M15245 830 c3 -6 18 -10 32 -10 31 0 83 -30 83 -47 0 -16 -2 -16 -36 2 -16 8 -36 15 -44 15 -8 -1 7 -10 33 -22 40 -18 50 -19 57 -7 11 16 -4 35 -39 53 -35 18 -94 28 -86 16z"/>
 <path d="M11953 815 c-3 -9 -3 -19 1 -22 3 -4 6 1 6 10 0 22 9 22 108 -9 46 -14 89 -23 95 -21 11 3 -168 57 -191 57 -7 0 -15 -7 -19 -15z"/>
 <path d="M15153 810 c-37 -22 -74 -87 -72 -127 1 -20 3 -22 6 -8 15 71 49 119 98 141 17 7 23 13 15 14 -8 0 -29 -9 -47 -20z"/>
 <path d="M15016 794 c-4 -14 -5 -28 -3 -31 3 -2 8 8 11 23 4 14 5 28 3 31 -3 2 -8 -8 -11 -23z"/>
 <path d="M11266 784 c-4 -14 -5 -28 -3 -31 3 -2 8 8 11 23 4 14 5 28 3 31 -3 2 -8 -8 -11 -23z"/>
 <path d="M11496 784 c-4 -14 -5 -28 -3 -31 3 -2 8 8 11 23 4 14 5 28 3 31 -3 2 -8 -8 -11 -23z"/>
 <path d="M14355 779 c-4 -17 -3 -35 1 -39 5 -5 10 9 11 31 1 47 -3 50 -12 8z"/>
 <path d="M13828 793 c18 -3 32 -10 32 -18 0 -8 -14 -15 -32 -18 -32 -4 -32 -4 5 -5 33 -2 37 0 37 23 0 23 -4 25 -37 23 -37 -1 -37 -1 -5 -5z"/>
 <path d="M14778 742 c4 -74 12 -80 12 -9 0 31 -3 58 -8 61 -4 2 -6 -21 -4 -52z"/>
 <path d="M14822 770 c0 -19 2 -27 5 -17 2 9 2 25 0 35 -3 9 -5 1 -5 -18z"/>
 <path d="M14395 769 c-4 -11 -4 -23 -1 -26 3 -4 6 1 6 10 0 25 13 20 32 -12 9 -16 27 -35 40 -41 20 -10 20 -9 -4 12 -15 12 -32 35 -37 51 -12 32 -27 35 -36 6z"/>
 <path d="M15186 769 c-27 -21 -56 -68 -56 -91 0 -7 10 8 23 32 14 29 34 51 57 62 19 10 28 18 19 18 -9 0 -28 -9 -43 -21z"/>
 <path d="M11936 754 c-4 -14 -5 -28 -3 -31 3 -2 8 8 11 23 4 14 5 28 3 31 -3 2 -8 -8 -11 -23z"/>
 <path d="M15001 734 c0 -11 3 -14 6 -6 3 7 2 16 -1 19 -3 4 -6 -2 -5 -13z"/>
 <path d="M15463 734 c-18 -9 -42 -31 -54 -50 -22 -36 -43 -97 -30 -89 5 2 11 18 14 35 4 16 21 46 40 66 28 31 41 37 92 44 57 7 58 7 15 8 -25 1 -60 -6 -77 -14z"/>
 <path d="M11250 730 c0 -7 3 -10 7 -7 3 4 3 10 0 14 -4 3 -7 0 -7 -7z"/>
 <path d="M11476 714 c-4 -14 -5 -28 -3 -31 3 -2 8 8 11 23 4 14 5 28 3 31 -3 2 -8 -8 -11 -23z"/>
 <path d="M12160 730 c0 -7 3 -10 7 -7 3 4 3 10 0 14 -4 3 -7 0 -7 -7z"/>
 <path d="M15628 717 c23 -11 42 -27 42 -34 0 -15 -12 -17 -25 -4 -6 5 -21 12 -35 15 -17 4 -12 0 13 -14 30 -17 41 -19 53 -9 11 9 12 15 2 26 -14 18 -63 43 -80 42 -7 0 6 -10 30 -22z"/>
 <path d="M12743 723 c4 -3 10 -3 14 0 3 4 0 7 -7 7 -7 0 -10 -3 -7 -7z"/>
 <path d="M12785 710 c11 -5 27 -9 35 -9 9 0 8 4 -5 9 -11 5 -27 9 -35 9 -9 0 -8 -4 5 -9z"/>
 <path d="M11241 694 c0 -11 3 -14 6 -6 3 7 2 16 -1 19 -3 4 -6 -2 -5 -13z"/>
 <path d="M11916 684 c-4 -14 -5 -28 -3 -31 3 -2 8 8 11 23 4 14 5 28 3 31 -3 2 -8 -8 -11 -23z"/>
 <path d="M12136 649 c-9 -34 -15 -63 -13 -66 2 -2 12 24 21 58 10 33 16 63 13 65 -2 2 -11 -24 -21 -57z"/>
 <path d="M14990 700 c0 -7 3 -10 7 -7 3 4 3 10 0 14 -4 3 -7 0 -7 -7z"/>
 <path d="M15465 674 c-39 -38 -42 -67 -10 -72 18 -2 18 -2 3 8 -26 16 -4 55 46 80 31 15 36 20 19 20 -12 0 -38 -16 -58 -36z"/>
 <path d="M15558 703 c7 -3 16 -2 19 1 4 3 -2 6 -13 5 -11 0 -14 -3 -6 -6z"/>
 <path d="M12843 693 c4 -3 10 -3 14 0 3 4 0 7 -7 7 -7 0 -10 -3 -7 -7z"/>
 <path d="M12296 594 c-15 -53 -26 -98 -23 -100 2 -2 16 39 31 92 15 52 26 97 24 100 -3 2 -17 -39 -32 -92z"/>
 <path d="M12885 680 c11 -5 27 -9 35 -9 9 0 8 4 -5 9 -11 5 -27 9 -35 9 -9 0 -8 -4 5 -9z"/>
 <path d="M14831 646 l-1 -38 -25 16 c-20 13 -23 14 -19 1 7 -18 43 -30 54 -18 5 4 5 24 0 43 l-8 35 -1 -39z"/>
 <path d="M14976 654 c-4 -14 -5 -28 -3 -31 3 -2 8 8 11 23 4 14 5 28 3 31 -3 2 -8 -8 -11 -23z"/>
 <path d="M15766 665 c-22 -22 -12 -35 27 -34 31 2 31 2 4 6 -44 7 -27 28 19 25 56 -5 101 -29 116 -63 7 -16 17 -29 21 -29 5 0 0 15 -10 33 -32 55 -144 95 -177 62z"/>
 <path d="M11226 644 c-4 -14 -5 -28 -3 -31 3 -2 8 8 11 23 4 14 5 28 3 31 -3 2 -8 -8 -11 -23z"/>
 <path d="M11451 629 c-7 -22 -11 -43 -8 -45 2 -2 9 14 16 37 7 22 11 43 8 45 -2 2 -9 -14 -16 -37z"/>
 <path d="M12940 667 c8 -8 221 -70 225 -65 3 2 -39 17 -93 33 -123 35 -138 39 -132 32z"/>
 <path d="M10965 603 c-30 -102 -30 -117 -2 -136 54 -35 120 -111 148 -170 16 -34 29 -56 29 -48 0 48 -110 192 -175 228 -20 12 -20 12 0 89 11 43 26 79 32 81 6 2 49 -32 95 -76 46 -45 86 -81 89 -81 4 0 10 7 13 16 10 25 6 31 -5 10 -10 -17 -15 -14 -58 31 -51 55 -123 113 -139 113 -6 0 -18 -26 -27 -57z"/>
 <path d="M15080 616 c17 -75 94 -136 173 -136 39 0 50 9 41 34 -9 23 -23 20 -17 -4 4 -17 0 -20 -25 -20 -69 0 -147 57 -158 117 -3 18 -10 35 -14 38 -4 3 -4 -11 0 -29z"/>
 <path d="M11886 579 c-10 -33 -16 -63 -13 -65 2 -2 11 24 21 57 9 34 15 63 13 66 -2 2 -12 -24 -21 -58z"/>
 <path d="M12677 633 c-8 -13 -37 -116 -36 -127 1 -6 11 19 23 55 l21 66 270 -78 c246 -71 306 -87 294 -75 -2 2 -123 39 -269 81 -146 42 -272 78 -282 81 -9 3 -18 1 -21 -3z"/>
 <path d="M15131 620 c-2 -31 37 -78 74 -90 20 -7 39 -10 41 -7 3 3 -8 8 -24 12 -33 7 -66 37 -81 75 -5 14 -10 18 -10 10z"/>
 <path d="M15861 615 c46 -25 43 -67 -6 -93 -16 -9 -17 -11 -3 -12 24 0 57 46 51 70 -6 21 -40 50 -58 50 -5 -1 2 -7 16 -15z"/>
 <path d="M11206 574 c-4 -14 -5 -28 -3 -31 3 -2 8 8 11 23 4 14 5 28 3 31 -3 2 -8 -8 -11 -23z"/>
 <path d="M13195 590 c11 -5 27 -9 35 -9 9 0 8 4 -5 9 -11 5 -27 9 -35 9 -9 0 -8 -4 5 -9z"/>
 <path d="M15483 593 c4 -3 10 -3 14 0 3 4 0 7 -7 7 -7 0 -10 -3 -7 -7z"/>
 <path d="M13748 583 c7 -3 16 -2 19 1 4 3 -2 6 -13 5 -11 0 -14 -3 -6 -6z"/>
 <path d="M15523 583 c4 -3 10 -3 14 0 3 4 0 7 -7 7 -7 0 -10 -3 -7 -7z"/>
 <path d="M13265 571 c11 -4 36 -11 55 -15 24 -4 29 -3 15 3 -11 4 -36 11 -55 15 -24 4 -29 3 -15 -3z"/>
 <path d="M13795 571 c11 -4 36 -11 55 -15 24 -4 29 -3 15 3 -11 4 -36 11 -55 15 -24 4 -29 3 -15 -3z"/>
 <path d="M15420 569 c0 -5 4 -8 8 -5 10 6 143 -32 155 -44 14 -13 -1 -46 -28 -60 -14 -7 -23 -15 -21 -17 8 -9 43 17 61 43 23 36 10 47 -86 73 -87 24 -89 24 -89 10z"/>
 <path d="M15553 573 c4 -3 10 -3 14 0 3 4 0 7 -7 7 -7 0 -10 -3 -7 -7z"/>
 <path d="M11422 523 c-7 -25 -11 -47 -9 -50 2 -2 10 17 17 42 7 25 11 48 8 50 -2 2 -10 -16 -16 -42z"/>
 <path d="M12111 554 c0 -11 3 -14 6 -6 3 7 2 16 -1 19 -3 4 -6 -2 -5 -13z"/>
 <path d="M15613 558 c20 -6 37 -17 37 -24 0 -37 -27 -75 -85 -120 -18 -13 -17 -13 12 0 39 19 69 57 78 97 8 37 0 47 -45 53 l-35 5 38 -11z"/>
 <path d="M15930 527 c-15 -30 -27 -40 -64 -52 -10 -3 -16 -8 -14 -11 3 -3 22 1 41 10 36 15 61 46 55 71 -2 7 -10 -1 -18 -18z"/>
 <path d="M13375 540 c11 -5 27 -9 35 -9 9 0 8 4 -5 9 -11 5 -27 9 -35 9 -9 0 -8 -4 5 -9z"/>
 <path d="M13898 543 c7 -3 16 -2 19 1 4 3 -2 6 -13 5 -11 0 -14 -3 -6 -6z"/>
 <path d="M13945 530 c11 -5 27 -9 35 -9 9 0 8 4 -5 9 -11 5 -27 9 -35 9 -9 0 -8 -4 5 -9z"/>
 <path d="M12100 520 c0 -7 3 -10 7 -7 3 4 3 10 0 14 -4 3 -7 0 -7 -7z"/>
 <path d="M13438 523 c7 -3 16 -2 19 1 4 3 -2 6 -13 5 -11 0 -14 -3 -6 -6z"/>
 <path d="M15381 503 c14 -38 56 -80 91 -92 18 -6 26 -6 23 -1 -4 6 -12 10 -19 10 -23 0 -68 42 -82 77 -17 40 -28 45 -13 6z"/>
 <path d="M15420 518 c0 -23 48 -78 68 -78 11 1 7 6 -11 16 -16 9 -35 30 -42 47 -8 18 -14 24 -15 15z"/>
 <path d="M13471 515 c6 -5 257 -69 314 -80 89 -16 20 6 -139 44 -175 43 -182 44 -175 36z"/>
 <path d="M14001 516 c8 -9 332 -87 343 -83 6 2 -65 23 -159 45 -166 41 -193 47 -184 38z"/>
 <path d="M14882 508 c-30 -30 11 -85 44 -57 20 16 18 55 -3 64 -15 5 -16 4 -5 -6 26 -27 10 -65 -22 -53 -19 7 -21 35 -4 52 7 7 10 12 7 12 -3 0 -10 -5 -17 -12z"/>
 <path d="M15781 507 c-42 -11 -93 -58 -79 -73 4 -3 12 7 20 23 10 21 24 31 55 38 23 6 45 13 49 18 9 8 11 9 -45 -6z"/>
 <path d="M11856 474 c-4 -14 -5 -28 -3 -31 3 -2 8 8 11 23 4 14 5 28 3 31 -3 2 -8 -8 -11 -23z"/>
 <path d="M12086 474 c-4 -14 -5 -28 -3 -31 3 -2 8 8 11 23 4 14 5 28 3 31 -3 2 -8 -8 -11 -23z"/>
 <path d="M12626 464 c-4 -14 -5 -28 -3 -31 3 -2 8 8 11 23 4 14 5 28 3 31 -3 2 -8 -8 -11 -23z"/>
 <path d="M11605 468 c-3 -7 -14 -44 -25 -83 l-20 -70 23 -20 c12 -11 36 -31 52 -45 48 -40 94 -103 115 -156 10 -27 19 -42 19 -34 2 52 -91 179 -171 236 l-27 19 21 75 c12 41 23 77 25 79 4 5 70 -45 122 -93 43 -39 39 -25 -5 20 -26 27 -104 84 -116 84 -5 0 -11 -6 -13 -12z"/>
 <path d="M12200 258 c-35 -123 -65 -230 -67 -238 -4 -13 -3 -13 5 0 12 20 135 451 129 456 -2 2 -32 -96 -67 -218z"/>
 <path d="M15781 457 c-14 -6 -26 -19 -29 -27 -3 -11 -1 -11 9 2 8 9 30 21 49 26 20 6 26 11 15 11 -11 0 -31 -5 -44 -12z"/>
 <path d="M11391 419 c-7 -22 -11 -43 -8 -45 2 -2 9 14 16 37 7 22 11 43 8 45 -2 2 -9 -14 -16 -37z"/>
 <path d="M13245 438 c-22 -72 -26 -90 -21 -95 3 -4 6 -2 6 3 0 5 7 30 15 57 8 26 12 47 9 47 -2 0 -6 -6 -9 -12z"/>
 <path d="M11836 404 c-4 -14 -5 -28 -3 -31 3 -2 8 8 11 23 4 14 5 28 3 31 -3 2 -8 -8 -11 -23z"/>
 <path d="M12066 404 c-4 -14 -5 -28 -3 -31 3 -2 8 8 11 23 4 14 5 28 3 31 -3 2 -8 -8 -11 -23z"/>
 <path d="M12836 422 c-11 -18 -123 -423 -114 -414 5 5 34 97 64 203 33 116 62 199 71 207 16 11 16 12 1 12 -9 0 -19 -3 -22 -8z"/>
 <path d="M13838 423 c7 -3 16 -2 19 1 4 3 -2 6 -13 5 -11 0 -14 -3 -6 -6z"/>
 <path d="M14368 423 c7 -3 16 -2 19 1 4 3 -2 6 -13 5 -11 0 -14 -3 -6 -6z"/>
 <path d="M12606 394 c-4 -14 -5 -28 -3 -31 3 -2 8 8 11 23 4 14 5 28 3 31 -3 2 -8 -8 -11 -23z"/>
 <path d="M12883 413 c4 -3 10 -3 14 0 3 4 0 7 -7 7 -7 0 -10 -3 -7 -7z"/>
 <path d="M13870 417 c0 -8 187 -50 201 -45 7 2 -25 12 -72 22 -46 10 -94 20 -106 23 -13 3 -23 3 -23 0z"/>
 <path d="M14401 415 c6 -5 288 -75 303 -75 26 1 -26 19 -99 35 -44 10 -105 24 -135 31 -56 15 -77 17 -69 9z"/>
 <path d="M12918 403 c7 -3 16 -2 19 1 4 3 -2 6 -13 5 -11 0 -14 -3 -6 -6z"/>
 <path d="M15518 403 c7 -3 16 -2 19 1 4 3 -2 6 -13 5 -11 0 -14 -3 -6 -6z"/>
 <path d="M15750 403 c0 -21 43 -53 69 -52 24 1 23 2 -6 10 -18 5 -39 19 -48 31 -8 13 -15 17 -15 11z"/>
 <path d="M12965 390 c11 -5 27 -9 35 -9 9 0 8 4 -5 9 -11 5 -27 9 -35 9 -9 0 -8 -4 5 -9z"/>
 <path d="M15709 383 c14 -27 59 -63 80 -63 9 1 2 7 -15 14 -17 8 -41 27 -53 42 -14 19 -18 21 -12 7z"/>
 <path d="M13487 379 c-58 -14 -110 -44 -150 -88 -38 -42 -67 -91 -67 -113 0 -7 12 10 26 37 15 28 38 63 53 79 29 32 114 76 148 76 12 0 25 5 28 10 3 6 5 10 3 9 -2 -1 -20 -5 -41 -10z"/>
 <path d="M10543 373 c4 -3 10 -3 14 0 3 4 0 7 -7 7 -7 0 -10 -3 -7 -7z"/>
 <path d="M13023 373 c4 -3 10 -3 14 0 3 4 0 7 -7 7 -7 0 -10 -3 -7 -7z"/>
 <path d="M13690 354 c46 -14 99 -34 117 -45 49 -31 112 -107 125 -153 6 -23 15 -45 19 -50 5 -5 4 8 -2 30 -17 64 -56 120 -109 159 -53 39 -167 85 -210 84 -14 0 13 -11 60 -25z"/>
 <path d="M10578 363 c7 -3 16 -2 19 1 4 3 -2 6 -13 5 -11 0 -14 -3 -6 -6z"/>
 <path d="M13065 360 c11 -5 27 -9 35 -9 9 0 8 4 -5 9 -11 5 -27 9 -35 9 -9 0 -8 -4 5 -9z"/>
 <path d="M14098 363 c7 -3 16 -2 19 1 4 3 -2 6 -13 5 -11 0 -14 -3 -6 -6z"/>
 <path d="M11347 263 c-16 -52 -26 -97 -24 -99 2 -2 16 39 32 91 15 53 26 97 24 100 -2 2 -17 -39 -32 -92z"/>
 <path d="M11817 339 c-3 -11 -10 -18 -16 -14 -6 3 -11 1 -11 -4 0 -20 29 -11 35 10 4 11 5 23 2 25 -2 3 -7 -5 -10 -17z"/>
 <path d="M12046 334 c-4 -14 -5 -28 -3 -31 3 -2 8 8 11 23 4 14 5 28 3 31 -3 2 -8 -8 -11 -23z"/>
 <path d="M14158 351 c29 -14 182 -44 188 -39 4 4 -108 31 -186 44 -24 4 -25 4 -2 -5z"/>
 <path d="M15855 336 c0 -13 3 -22 8 -19 4 2 7 13 7 24 0 10 -3 19 -7 19 -5 0 -8 -11 -8 -24z"/>
 <path d="M12586 324 c-4 -14 -5 -28 -3 -31 3 -2 8 8 11 23 4 14 5 28 3 31 -3 2 -8 -8 -11 -23z"/>
 <path d="M13135 340 c11 -5 27 -9 35 -9 9 0 8 4 -5 9 -11 5 -27 9 -35 9 -9 0 -8 -4 5 -9z"/>
 <path d="M14738 333 c7 -3 16 -2 19 1 4 3 -2 6 -13 5 -11 0 -14 -3 -6 -6z"/>
 <path d="M13198 323 c7 -3 16 -2 19 1 4 3 -2 6 -13 5 -11 0 -14 -3 -6 -6z"/>
 <path d="M14778 323 c7 -3 16 -2 19 1 4 3 -2 6 -13 5 -11 0 -14 -3 -6 -6z"/>
 <path d="M14811 316 c8 -8 190 -48 196 -43 2 3 -27 12 -64 20 -99 23 -139 30 -132 23z"/>
 <path d="M14371 306 c8 -8 209 -49 215 -43 2 2 -33 12 -78 21 -126 26 -143 29 -137 22z"/>
 <path d="M12026 264 c-4 -14 -5 -28 -3 -31 3 -2 8 8 11 23 4 14 5 28 3 31 -3 2 -8 -8 -11 -23z"/>
 <path d="M13517 284 c-10 -10 -9 -132 1 -138 4 -2 6 25 4 61 -3 42 -1 64 6 62 5 -2 31 -30 56 -61 26 -32 51 -58 55 -58 4 0 40 11 79 24 40 14 72 20 72 15 0 -6 -18 -36 -40 -66 -22 -31 -40 -61 -40 -68 0 -6 12 -22 27 -36 l27 -24 -23 33 -23 32 46 64 c69 97 65 101 -51 59 l-75 -26 -26 34 c-50 63 -87 100 -95 93z"/>
 <path d="M12566 254 c-4 -14 -5 -28 -3 -31 3 -2 8 8 11 23 4 14 5 28 3 31 -3 2 -8 -8 -11 -23z"/>
 <path d="M15038 263 c7 -3 16 -2 19 1 4 3 -2 6 -13 5 -11 0 -14 -3 -6 -6z"/>
 <path d="M14600 257 c3 -3 29 -10 58 -15 30 -5 50 -6 45 -2 -9 9 -111 26 -103 17z"/>
 <path d="M15078 253 c7 -3 16 -2 19 1 4 3 -2 6 -13 5 -11 0 -14 -3 -6 -6z"/>
 <path d="M15110 246 c0 -3 26 -10 58 -16 31 -6 106 -22 165 -36 60 -14 114 -23 120 -21 7 3 1 7 -13 10 -14 3 -86 19 -161 36 -130 30 -169 36 -169 27z"/>
 <path d="M14735 230 c11 -5 29 -8 40 -8 16 0 15 2 -5 8 -34 11 -60 11 -35 0z"/>
 <path d="M11140 218 c0 -17 36 -35 47 -24 4 3 -1 6 -10 6 -9 0 -21 8 -26 18 -9 15 -10 16 -11 0z"/>
 <path d="M12010 210 c0 -7 3 -10 7 -7 3 4 3 10 0 14 -4 3 -7 0 -7 -7z"/>
 <path d="M14815 215 c22 -10 97 -23 89 -15 -5 5 -29 11 -54 15 -25 3 -40 3 -35 0z"/>
 <path d="M10428 203 c7 -3 16 -2 19 1 4 3 -2 6 -13 5 -11 0 -14 -3 -6 -6z"/>
 <path d="M12541 169 c-7 -22 -11 -43 -8 -45 2 -2 9 14 16 37 7 22 11 43 8 45 -2 2 -9 -14 -16 -37z"/>
 <path d="M10475 190 c11 -5 27 -9 35 -9 9 0 8 4 -5 9 -11 5 -27 9 -35 9 -9 0 -8 -4 5 -9z"/>
 <path d="M14920 196 c0 -2 9 -6 20 -9 11 -3 18 -1 14 4 -5 9 -34 13 -34 5z"/>
 <path d="M11215 180 c11 -5 27 -9 35 -9 9 0 8 4 -5 9 -11 5 -27 9 -35 9 -9 0 -8 -4 5 -9z"/>
 <path d="M14985 180 c11 -5 34 -8 50 -8 29 0 29 0 5 8 -14 4 -36 8 -50 8 -23 1 -23 0 -5 -8z"/>
 <path d="M10560 165 c19 -7 42 -13 50 -13 8 0 -1 6 -20 13 -19 7 -42 13 -50 13 -8 0 1 -6 20 -13z"/>
 <path d="M12000 170 c0 -7 3 -10 7 -7 3 4 3 10 0 14 -4 3 -7 0 -7 -7z"/>
 <path d="M15478 168 c5 -5 16 -8 23 -6 8 3 3 7 -10 11 -17 4 -21 3 -13 -5z"/>
 <path d="M11270 166 c0 -2 9 -6 20 -9 11 -3 18 -1 14 4 -5 9 -34 13 -34 5z"/>
 <path d="M15070 166 c0 -2 11 -6 25 -8 13 -3 22 -1 19 3 -5 9 -44 13 -44 5z"/>
 <path d="M13260 150 c0 -7 3 -10 7 -7 3 4 3 10 0 14 -4 3 -7 0 -7 -7z"/>
 <path d="M14221 138 c-50 -19 -141 -96 -141 -118 0 -5 24 15 53 44 37 39 65 58 97 67 25 7 49 16 55 21 15 13 -5 9 -64 -14z"/>
 <path d="M14323 153 c15 -2 37 -2 50 0 12 2 0 4 -28 4 -27 0 -38 -2 -22 -4z"/>
 <path d="M14405 150 c3 -6 14 -10 24 -10 27 0 152 -45 194 -70 30 -18 36 -27 32 -44 -6 -20 -5 -20 6 -2 10 17 8 23 -17 43 -48 38 -256 111 -239 83z"/>
 <path d="M15130 156 c0 -2 11 -6 25 -8 13 -3 22 -1 19 3 -5 9 -44 13 -44 5z"/>
 <path d="M15546 150 c28 -11 195 -42 200 -37 5 4 -189 47 -209 46 -7 0 -3 -4 9 -9z"/>
 <path d="M10638 143 c7 -3 16 -2 19 1 4 3 -2 6 -13 5 -11 0 -14 -3 -6 -6z"/>
 <path d="M11990 140 c0 -7 3 -10 7 -7 3 4 3 10 0 14 -4 3 -7 0 -7 -7z"/>
 <path d="M15198 143 c7 -3 16 -2 19 1 4 3 -2 6 -13 5 -11 0 -14 -3 -6 -6z"/>
 <path d="M10700 125 c19 -7 42 -13 50 -13 8 0 -1 6 -20 13 -19 7 -42 13 -50 13 -8 0 1 -6 20 -13z"/>
 <path d="M15240 136 c0 -2 11 -6 25 -8 13 -3 22 -1 19 3 -5 9 -44 13 -44 5z"/>
 <path d="M13510 115 c-7 -9 -8 -15 -2 -15 5 0 12 7 16 15 3 8 4 15 2 15 -2 0 -9 -7 -16 -15z"/>
 <path d="M15315 120 c11 -5 31 -8 45 -8 l25 0 -25 8 c-14 4 -34 8 -45 8 l-20 1 20 -9z"/>
 <path d="M10930 95 c41 -13 89 -27 105 -29 17 -3 -3 6 -43 19 -41 13 -88 26 -105 29 -18 3 2 -5 43 -19z"/>
 <path d="M11972 73 c-7 -25 -11 -47 -9 -50 2 -2 10 17 17 42 7 25 11 48 8 50 -2 2 -10 -16 -16 -42z"/>
 <path d="M13248 97 c-3 -19 -2 -25 4 -19 6 6 8 18 6 28 -3 14 -5 12 -10 -9z"/>
 <path d="M10785 100 c11 -5 27 -9 35 -9 9 0 8 4 -5 9 -11 5 -27 9 -35 9 -9 0 -8 -4 5 -9z"/>
 <path d="M15401 106 c12 -10 60 -16 54 -6 -3 5 -18 10 -32 10 -15 0 -24 -2 -22 -4z"/>
 <path d="M15805 95 c28 -8 59 -14 70 -14 l20 0 -20 8 c-11 5 -42 11 -70 14 l-50 6 50 -14z"/>
 <path d="M12510 60 c-6 -23 -9 -44 -7 -46 2 -3 9 14 15 38 6 23 9 44 7 46 -2 2 -9 -15 -15 -38z"/>
 <path d="M13418 82 c-56 -20 -79 -39 -57 -47 41 -15 114 -34 117 -30 2 2 -22 11 -53 20 -31 10 -53 21 -48 25 4 4 33 17 63 28 65 25 46 28 -22 4z"/>
 <path d="M15478 93 c7 -3 16 -2 19 1 4 3 -2 6 -13 5 -11 0 -14 -3 -6 -6z"/>
 <path d="M10895 70 c33 -11 65 -19 70 -19 16 1 -57 26 -95 32 -19 4 -8 -2 25 -13z"/>
 <path d="M15520 86 c0 -2 11 -6 25 -8 13 -3 22 -1 19 3 -5 9 -44 13 -44 5z"/>
 <path d="M15605 70 c46 -14 247 -48 238 -39 -7 7 -152 34 -233 45 -35 4 -35 4 -5 -6z"/>
 <path d="M15930 70 c34 -11 60 -11 35 0 -11 5 -29 8 -40 8 -16 0 -15 -2 5 -8z"/>
 <path d="M11070 57 c8 -8 183 -57 188 -53 2 3 -27 14 -65 25 -87 25 -129 35 -123 28z"/>
 <path d="M10995 40 c11 -5 27 -9 35 -9 9 0 8 4 -5 9 -11 5 -27 9 -35 9 -9 0 -8 -4 5 -9z"/>
 <path d="M11770 30 c0 -9 39 -25 45 -18 2 2 -7 8 -21 15 -13 6 -24 7 -24 3z"/>
 <path d="M11065 20 c11 -5 27 -9 35 -9 9 0 8 4 -5 9 -11 5 -27 9 -35 9 -9 0 -8 -4 5 -9z"/>
 <path d="M13947 23 c-4 -3 -7 -11 -7 -17 0 -6 5 -5 12 2 6 6 9 14 7 17 -3 3 -9 2 -12 -2z"/>
 <path d="M15885 20 c28 -12 37 -12 30 0 -3 6 -16 10 -28 9 -21 0 -21 -1 -2 -9z"/>
 <path d="M13245 10 c3 -5 8 -10 11 -10 3 0 2 5 -1 10 -3 6 -8 10 -11 10 -3 0 -2 -4 1 -10z"/>
 <path d="M15933 13 c4 -3 10 -3 14 0 3 4 0 7 -7 7 -7 0 -10 -3 -7 -7z"/>
 <path d="M11133 3 c4 -3 10 -3 14 0 3 4 0 7 -7 7 -7 0 -10 -3 -7 -7z"/>
 <path d="M14368 3 c7 -3 16 -2 19 1 4 3 -2 6 -13 5 -11 0 -14 -3 -6 -6z"/>
 <path d="M14448 3 c7 -3 16 -2 19 1 4 3 -2 6 -13 5 -11 0 -14 -3 -6 -6z"/>
 <path d="M15983 3 c4 -3 10 -3 14 0 3 4 0 7 -7 7 -7 0 -10 -3 -7 -7z"/>
 </g>
<g id="layer104" fill="#5588d6" stroke="none">
 <path d="M10161 1273 c-1 -6 -4 -20 -7 -30 -5 -17 -5 -17 6 0 6 10 9 23 6 30 -3 9 -5 9 -5 0z"/>
 <path d="M10328 1268 c5 -5 16 -8 23 -6 8 3 3 7 -10 11 -17 4 -21 3 -13 -5z"/>
 <path d="M10516 1265 c-11 -8 -15 -15 -9 -15 6 0 16 7 23 15 16 19 11 19 -14 0z"/>
 <path d="M11200 1276 c0 -3 9 -10 20 -16 11 -6 20 -8 20 -6 0 3 -9 10 -20 16 -11 6 -20 8 -20 6z"/>
 <path d="M12894 1268 c-4 -7 -3 -8 4 -4 7 4 12 9 12 12 0 8 -9 4 -16 -8z"/>
 <path d="M10463 1263 c4 -3 10 -3 14 0 3 4 0 7 -7 7 -7 0 -10 -3 -7 -7z"/>
 <path d="M10560 1260 c0 -7 3 -10 7 -7 3 4 3 10 0 14 -4 3 -7 0 -7 -7z"/>
 <path d="M11543 1263 c4 -3 10 -3 14 0 3 4 0 7 -7 7 -7 0 -10 -3 -7 -7z"/>
 <path d="M12100 1260 c0 -7 3 -10 7 -7 3 4 3 10 0 14 -4 3 -7 0 -7 -7z"/>
 <path d="M12160 1262 c0 -7 -10 -13 -22 -13 -19 -1 -20 -2 -4 -6 20 -5 44 12 33 24 -4 3 -7 1 -7 -5z"/>
 <path d="M12740 1261 c0 -10 39 -46 43 -40 2 2 -7 14 -20 26 -13 12 -23 19 -23 14z"/>
 <path d="M12935 1244 c-9 -15 -12 -23 -6 -20 11 7 35 46 28 46 -3 0 -12 -12 -22 -26z"/>
 <path d="M10120 1250 c0 -7 3 -10 7 -7 3 4 3 10 0 14 -4 3 -7 0 -7 -7z"/>
 <path d="M10380 1256 c0 -2 7 -7 16 -10 8 -3 12 -2 9 4 -6 10 -25 14 -25 6z"/>
 <path d="M11580 1254 c0 -7 52 -25 57 -20 2 2 -10 8 -26 14 -17 6 -31 9 -31 6z"/>
 <path d="M13185 1250 c-13 -6 -15 -9 -5 -9 8 0 22 4 30 9 18 12 2 12 -25 0z"/>
 <path d="M11263 1243 c4 -3 10 -3 14 0 3 4 0 7 -7 7 -7 0 -10 -3 -7 -7z"/>
 <path d="M12705 1238 c8 -20 65 -58 86 -58 8 1 0 7 -17 14 -17 8 -41 24 -53 37 -15 17 -20 19 -16 7z"/>
 <path d="M12874 1238 c-4 -7 -3 -8 4 -4 12 7 16 16 8 16 -3 0 -8 -5 -12 -12z"/>
 <path d="M13460 1243 c0 -5 -10 -15 -22 -21 -13 -6 -18 -11 -12 -11 16 -1 50 27 41 35 -4 4 -7 3 -7 -3z"/>
 <path d="M13515 1239 c-4 -6 -5 -12 -2 -15 2 -3 7 2 10 11 7 17 1 20 -8 4z"/>
 <path d="M10453 1233 c4 -3 10 -3 14 0 3 4 0 7 -7 7 -7 0 -10 -3 -7 -7z"/>
 <path d="M13095 1230 c-3 -6 1 -7 9 -4 18 7 21 14 7 14 -6 0 -13 -4 -16 -10z"/>
 <path d="M13740 1215 c0 -14 4 -25 9 -25 4 0 6 11 3 25 -2 14 -6 25 -8 25 -2 0 -4 -11 -4 -25z"/>
 <path d="M13879 1225 c18 -8 36 -15 40 -15 13 1 -45 29 -59 29 -8 0 0 -6 19 -14z"/>
 <path d="M10110 1220 c0 -7 3 -10 7 -7 3 4 3 10 0 14 -4 3 -7 0 -7 -7z"/>
 <path d="M10535 1220 c-19 -8 -19 -9 3 -9 12 -1 22 4 22 9 0 6 -1 10 -2 9 -2 0 -12 -4 -23 -9z"/>
 <path d="M11345 1211 c22 -10 51 -21 65 -25 14 -3 7 2 -15 13 -22 10 -51 21 -65 25 -14 3 -7 -2 15 -13z"/>
 <path d="M11653 1223 c4 -3 10 -3 14 0 3 4 0 7 -7 7 -7 0 -10 -3 -7 -7z"/>
 <path d="M13010 1220 c0 -7 3 -10 7 -7 3 4 3 10 0 14 -4 3 -7 0 -7 -7z"/>
 <path d="M12808 1213 c6 -2 18 -2 25 0 6 3 1 5 -13 5 -14 0 -19 -2 -12 -5z"/>
 <path d="M10132 1173 c-15 -48 -8 -55 8 -8 7 20 10 38 8 41 -3 2 -10 -13 -16 -33z"/>
 <path d="M11713 1203 c4 -3 10 -3 14 0 3 4 0 7 -7 7 -7 0 -10 -3 -7 -7z"/>
 <path d="M12895 1200 c-3 -6 1 -7 9 -4 18 7 21 14 7 14 -6 0 -13 -4 -16 -10z"/>
 <path d="M13383 1203 c4 -3 10 -3 14 0 3 4 0 7 -7 7 -7 0 -10 -3 -7 -7z"/>
 <path d="M13490 1195 c-7 -8 -27 -19 -44 -24 -24 -7 -26 -9 -9 -10 12 -1 35 10 50 24 15 13 25 25 22 25 -4 0 -12 -7 -19 -15z"/>
 <path d="M11743 1193 c4 -3 10 -3 14 0 3 4 0 7 -7 7 -7 0 -10 -3 -7 -7z"/>
 <path d="M13315 1190 c-3 -6 1 -7 9 -4 18 7 21 14 7 14 -6 0 -13 -4 -16 -10z"/>
 <path d="M13840 1196 c0 -2 7 -7 16 -10 8 -3 12 -2 9 4 -6 10 -25 14 -25 6z"/>
 <path d="M13940 1190 c0 -7 3 -10 7 -7 3 4 3 10 0 14 -4 3 -7 0 -7 -7z"/>
 <path d="M10096 1175 c-3 -9 -6 -22 -5 -28 0 -7 5 -1 10 12 5 13 8 26 5 28 -2 2 -6 -3 -10 -12z"/>
 <path d="M10689 1163 c-5 -14 -8 -30 -6 -36 1 -5 8 7 14 27 13 42 7 49 -8 9z"/>
 <path d="M10735 1180 c27 -12 43 -12 25 0 -8 5 -22 9 -30 9 -10 0 -8 -3 5 -9z"/>
 <path d="M11773 1183 c4 -3 10 -3 14 0 3 4 0 7 -7 7 -7 0 -10 -3 -7 -7z"/>
 <path d="M11440 1177 c0 -3 15 -10 32 -16 18 -6 28 -7 23 -2 -12 10 -55 25 -55 18z"/>
 <path d="M11803 1173 c4 -3 10 -3 14 0 3 4 0 7 -7 7 -7 0 -10 -3 -7 -7z"/>
 <path d="M13881 1177 c2 -1 13 -9 24 -17 19 -14 19 -14 6 3 -7 9 -18 17 -24 17 -6 0 -8 -1 -6 -3z"/>
 <path d="M10793 1163 c4 -3 10 -3 14 0 3 4 0 7 -7 7 -7 0 -10 -3 -7 -7z"/>
 <path d="M11833 1163 c4 -3 10 -3 14 0 3 4 0 7 -7 7 -7 0 -10 -3 -7 -7z"/>
 <path d="M10823 1153 c4 -3 10 -3 14 0 3 4 0 7 -7 7 -7 0 -10 -3 -7 -7z"/>
 <path d="M11876 1151 c11 -11 136 -52 141 -47 2 2 -31 16 -73 30 -43 14 -74 22 -68 17z"/>
 <path d="M13015 1150 c3 -5 8 -10 11 -10 3 0 2 5 -1 10 -3 6 -8 10 -11 10 -3 0 -2 -4 1 -10z"/>
 <path d="M13970 1150 c0 -7 3 -10 7 -7 3 4 3 10 0 14 -4 3 -7 0 -7 -7z"/>
 <path d="M10250 1140 c0 -7 3 -10 7 -7 3 4 3 10 0 14 -4 3 -7 0 -7 -7z"/>
 <path d="M10315 1140 c27 -12 43 -12 25 0 -8 5 -22 9 -30 9 -10 0 -8 -3 5 -9z"/>
 <path d="M10863 1143 c4 -3 10 -3 14 0 3 4 0 7 -7 7 -7 0 -10 -3 -7 -7z"/>
 <path d="M11530 1140 c8 -5 20 -10 25 -10 6 0 3 5 -5 10 -8 5 -19 10 -25 10 -5 0 -3 -5 5 -10z"/>
 <path d="M13087 1139 c7 -7 15 -10 18 -7 3 3 -2 9 -12 12 -14 6 -15 5 -6 -5z"/>
 <path d="M10385 1120 c27 -12 43 -12 25 0 -8 5 -22 9 -30 9 -10 0 -8 -3 5 -9z"/>
 <path d="M10875 1119 c-4 -6 -5 -12 -2 -15 2 -3 7 2 10 11 7 17 1 20 -8 4z"/>
 <path d="M13052 1114 c10 -10 20 -16 22 -13 3 3 -5 11 -17 18 -21 13 -21 12 -5 -5z"/>
 <path d="M13320 1106 c0 -8 4 -17 9 -20 5 -4 7 3 4 14 -6 23 -13 26 -13 6z"/>
 <path d="M14078 1093 c-29 -32 -48 -66 -48 -85 1 -7 8 3 16 22 8 19 27 47 41 63 15 15 24 27 22 27 -3 0 -17 -12 -31 -27z"/>
 <path d="M10111 1103 c-1 -6 -4 -20 -7 -30 -5 -17 -5 -17 6 0 6 10 9 23 6 30 -3 9 -5 9 -5 0z"/>
 <path d="M10455 1100 c27 -12 43 -12 25 0 -8 5 -22 9 -30 9 -10 0 -8 -3 5 -9z"/>
 <path d="M14305 1095 c11 -9 19 -24 17 -33 -2 -14 -1 -15 7 -2 12 17 7 27 -22 40 -22 11 -22 11 -2 -5z"/>
 <path d="M10662 1075 c-6 -14 -8 -25 -3 -25 8 0 23 41 17 47 -1 2 -8 -8 -14 -22z"/>
 <path d="M11650 1097 c8 -8 110 -47 110 -42 0 5 -52 28 -91 40 -13 4 -22 5 -19 2z"/>
 <path d="M13093 1093 c4 -3 10 -3 14 0 3 4 0 7 -7 7 -7 0 -10 -3 -7 -7z"/>
 <path d="M14193 1093 c4 -3 10 -3 14 0 3 4 0 7 -7 7 -7 0 -10 -3 -7 -7z"/>
 <path d="M10066 1075 c-3 -9 -6 -22 -5 -28 0 -7 5 -1 10 12 5 13 8 26 5 28 -2 2 -6 -3 -10 -12z"/>
 <path d="M10525 1080 c27 -12 43 -12 25 0 -8 5 -22 9 -30 9 -10 0 -8 -3 5 -9z"/>
 <path d="M10859 1064 c-5 -15 -8 -29 -5 -31 2 -2 8 10 14 26 13 38 5 41 -9 5z"/>
 <path d="M14233 1083 c4 -3 10 -3 14 0 3 4 0 7 -7 7 -7 0 -10 -3 -7 -7z"/>
 <path d="M10230 1070 c0 -7 3 -10 7 -7 3 4 3 10 0 14 -4 3 -7 0 -7 -7z"/>
 <path d="M12103 1073 c4 -3 10 -3 14 0 3 4 0 7 -7 7 -7 0 -10 -3 -7 -7z"/>
 <path d="M13286 1065 c4 -9 16 -21 28 -27 19 -10 19 -9 -3 16 -28 30 -33 32 -25 11z"/>
 <path d="M14124 1068 c-4 -7 -3 -8 4 -4 12 7 16 16 8 16 -3 0 -8 -5 -12 -12z"/>
 <path d="M14260 1076 c0 -2 7 -7 16 -10 8 -3 12 -2 9 4 -6 10 -25 14 -25 6z"/>
 <path d="M10595 1060 c27 -12 43 -12 25 0 -8 5 -22 9 -30 9 -10 0 -8 -3 5 -9z"/>
 <path d="M12133 1063 c4 -3 10 -3 14 0 3 4 0 7 -7 7 -7 0 -10 -3 -7 -7z"/>
 <path d="M12163 1053 c4 -3 10 -3 14 0 3 4 0 7 -7 7 -7 0 -10 -3 -7 -7z"/>
 <path d="M13373 1053 c4 -3 10 -3 14 0 3 4 0 7 -7 7 -7 0 -10 -3 -7 -7z"/>
 <path d="M13420 1056 c0 -2 7 -9 15 -16 13 -11 14 -10 9 4 -5 14 -24 23 -24 12z"/>
 <path d="M13885 1039 c-16 -10 -25 -19 -19 -19 7 0 22 9 35 20 30 24 23 24 -16 -1z"/>
 <path d="M13970 1050 c0 -7 3 -10 7 -7 3 4 3 10 0 14 -4 3 -7 0 -7 -7z"/>
 <path d="M14430 1051 c0 -5 9 -7 20 -4 11 3 20 7 20 9 0 2 -9 4 -20 4 -11 0 -20 -4 -20 -9z"/>
 <path d="M12193 1043 c4 -3 10 -3 14 0 3 4 0 7 -7 7 -7 0 -10 -3 -7 -7z"/>
 <path d="M14481 1038 c0 -9 -4 -25 -7 -35 -5 -17 -5 -17 6 0 6 10 9 25 7 35 -4 15 -5 15 -6 0z"/>
 <path d="M10216 1024 c-10 -26 -6 -58 10 -84 9 -14 12 -17 8 -5 -5 11 -8 39 -8 63 0 47 -1 49 -10 26z"/>
 <path d="M12299 1009 c47 -16 86 -27 88 -25 5 5 -147 56 -162 55 -6 0 28 -14 74 -30z"/>
 <path d="M13340 1026 c0 -2 7 -7 16 -10 8 -3 12 -2 9 4 -6 10 -25 14 -25 6z"/>
 <path d="M10041 989 c-6 -18 -11 -39 -10 -48 0 -9 7 4 14 29 16 51 13 67 -4 19z"/>
 <path d="M11880 1012 c8 -5 26 -13 40 -16 17 -5 20 -4 10 2 -8 5 -26 13 -40 16 -17 5 -20 4 -10 -2z"/>
 <path d="M13415 1010 c-3 -6 1 -7 9 -4 18 7 21 14 7 14 -6 0 -13 -4 -16 -10z"/>
 <path d="M13813 1013 c4 -3 10 -3 14 0 3 4 0 7 -7 7 -7 0 -10 -3 -7 -7z"/>
 <path d="M14420 1010 c0 -7 3 -10 7 -7 3 4 3 10 0 14 -4 3 -7 0 -7 -7z"/>
 <path d="M10081 1003 c-1 -6 -4 -20 -7 -30 -5 -17 -5 -17 6 0 6 10 9 23 6 30 -3 9 -5 9 -5 0z"/>
 <path d="M10850 997 c8 -8 26 -18 40 -22 32 -9 25 -3 -20 19 -25 12 -31 13 -20 3z"/>
 <path d="M13695 979 c-19 -17 -35 -36 -35 -41 0 -6 10 2 22 17 12 15 35 33 52 41 18 8 24 13 14 14 -10 0 -33 -14 -53 -31z"/>
 <path d="M14090 1000 c0 -5 5 -10 11 -10 5 0 7 5 4 10 -3 6 -8 10 -11 10 -2 0 -4 -4 -4 -10z"/>
 <path d="M11395 990 c27 -12 43 -12 25 0 -8 5 -22 9 -30 9 -10 0 -8 -3 5 -9z"/>
 <path d="M13910 990 c-8 -5 -10 -10 -5 -10 6 0 17 5 25 10 8 5 11 10 5 10 -5 0 -17 -5 -25 -10z"/>
 <path d="M11953 983 c4 -3 10 -3 14 0 3 4 0 7 -7 7 -7 0 -10 -3 -7 -7z"/>
 <path d="M14123 983 c4 -3 10 -3 14 0 3 4 0 7 -7 7 -7 0 -10 -3 -7 -7z"/>
 <path d="M11316 965 c-3 -9 -6 -22 -5 -28 0 -7 5 -1 10 12 5 13 8 26 5 28 -2 2 -6 -3 -10 -12z"/>
 <path d="M11453 973 c4 -3 10 -3 14 0 3 4 0 7 -7 7 -7 0 -10 -3 -7 -7z"/>
 <path d="M11983 973 c4 -3 10 -3 14 0 3 4 0 7 -7 7 -7 0 -10 -3 -7 -7z"/>
 <path d="M13873 973 c4 -3 10 -3 14 0 3 4 0 7 -7 7 -7 0 -10 -3 -7 -7z"/>
 <path d="M14163 973 c4 -3 10 -3 14 0 3 4 0 7 -7 7 -7 0 -10 -3 -7 -7z"/>
 <path d="M10932 950 c0 -14 2 -19 5 -12 2 6 2 18 0 25 -3 6 -5 1 -5 -13z"/>
 <path d="M13803 963 c4 -3 10 -3 14 0 3 4 0 7 -7 7 -7 0 -10 -3 -7 -7z"/>
 <path d="M14460 960 c0 -7 3 -10 7 -7 3 4 3 10 0 14 -4 3 -7 0 -7 -7z"/>
 <path d="M14758 963 c7 -3 16 -2 19 1 4 3 -2 6 -13 5 -11 0 -14 -3 -6 -6z"/>
 <path d="M11523 953 c4 -3 10 -3 14 0 3 4 0 7 -7 7 -7 0 -10 -3 -7 -7z"/>
 <path d="M12043 953 c4 -3 10 -3 14 0 3 4 0 7 -7 7 -7 0 -10 -3 -7 -7z"/>
 <path d="M12485 950 c27 -12 43 -12 25 0 -8 5 -22 9 -30 9 -10 0 -8 -3 5 -9z"/>
 <path d="M14070 951 c0 -5 9 -7 20 -4 11 3 20 7 20 9 0 2 -9 4 -20 4 -11 0 -20 -4 -20 -9z"/>
 <path d="M14233 953 c4 -3 10 -3 14 0 3 4 0 7 -7 7 -7 0 -10 -3 -7 -7z"/>
 <path d="M12070 947 c0 -3 20 -12 45 -20 45 -16 65 -14 23 2 -43 16 -68 22 -68 18z"/>
 <path d="M14133 943 c4 -3 10 -3 14 0 3 4 0 7 -7 7 -7 0 -10 -3 -7 -7z"/>
 <path d="M14400 940 c0 -7 3 -10 7 -7 3 4 3 10 0 14 -4 3 -7 0 -7 -7z"/>
 <path d="M14707 909 c-16 -21 -26 -39 -24 -39 7 0 59 71 56 75 -2 2 -17 -14 -32 -36z"/>
 <path d="M10430 930 c8 -5 22 -9 30 -9 10 0 8 3 -5 9 -27 12 -43 12 -25 0z"/>
 <path d="M13716 924 c-9 -24 -2 -26 12 -4 7 11 8 20 3 20 -5 0 -12 -7 -15 -16z"/>
 <path d="M14180 930 c8 -5 22 -9 30 -9 10 0 8 3 -5 9 -27 12 -43 12 -25 0z"/>
 <path d="M12573 923 c4 -3 10 -3 14 0 3 4 0 7 -7 7 -7 0 -10 -3 -7 -7z"/>
 <path d="M14451 923 c-1 -6 -4 -20 -7 -30 -5 -17 -5 -17 6 0 6 10 9 23 6 30 -3 9 -5 9 -5 0z"/>
 <path d="M10920 910 c0 -7 3 -10 7 -7 3 4 3 10 0 14 -4 3 -7 0 -7 -7z"/>
 <path d="M12603 913 c4 -3 10 -3 14 0 3 4 0 7 -7 7 -7 0 -10 -3 -7 -7z"/>
 <path d="M14070 910 c0 -7 3 -10 7 -7 3 4 3 10 0 14 -4 3 -7 0 -7 -7z"/>
 <path d="M14233 913 c4 -3 10 -3 14 0 3 4 0 7 -7 7 -7 0 -10 -3 -7 -7z"/>
 <path d="M14305 909 c-4 -6 -5 -12 -2 -15 2 -3 7 2 10 11 7 17 1 20 -8 4z"/>
 <path d="M10523 903 c4 -3 10 -3 14 0 3 4 0 7 -7 7 -7 0 -10 -3 -7 -7z"/>
 <path d="M11530 900 c0 -7 3 -10 7 -7 3 4 3 10 0 14 -4 3 -7 0 -7 -7z"/>
 <path d="M12190 900 c8 -5 22 -9 30 -9 10 0 8 3 -5 9 -27 12 -43 12 -25 0z"/>
 <path d="M14030 890 c0 -7 3 -10 7 -7 3 4 3 10 0 14 -4 3 -7 0 -7 -7z"/>
 <path d="M14998 893 c7 -3 16 -2 19 1 4 3 -2 6 -13 5 -11 0 -14 -3 -6 -6z"/>
 <path d="M12243 883 c4 -3 10 -3 14 0 3 4 0 7 -7 7 -7 0 -10 -3 -7 -7z"/>
 <path d="M12703 883 c4 -3 10 -3 14 0 3 4 0 7 -7 7 -7 0 -10 -3 -7 -7z"/>
 <path d="M14080 881 c0 -10 39 -46 43 -40 2 2 -7 14 -20 26 -13 12 -23 19 -23 14z"/>
 <path d="M14810 880 c0 -7 3 -10 7 -7 3 4 3 10 0 14 -4 3 -7 0 -7 -7z"/>
 <path d="M10261 860 c14 -31 19 -36 19 -24 0 6 -7 19 -16 30 -14 18 -14 18 -3 -6z"/>
 <path d="M10420 874 c0 -6 7 -19 16 -30 14 -18 14 -18 3 6 -14 31 -19 36 -19 24z"/>
 <path d="M10910 870 c0 -7 3 -10 7 -7 3 4 3 10 0 14 -4 3 -7 0 -7 -7z"/>
 <path d="M11290 870 c0 -7 3 -10 7 -7 3 4 3 10 0 14 -4 3 -7 0 -7 -7z"/>
 <path d="M12273 873 c4 -3 10 -3 14 0 3 4 0 7 -7 7 -7 0 -10 -3 -7 -7z"/>
 <path d="M12745 870 c27 -12 43 -12 25 0 -8 5 -22 9 -30 9 -10 0 -8 -3 5 -9z"/>
 <path d="M14380 870 c0 -7 3 -10 7 -7 3 4 3 10 0 14 -4 3 -7 0 -7 -7z"/>
 <path d="M14725 854 c-9 -15 -12 -23 -6 -20 11 7 35 46 28 46 -3 0 -12 -12 -22 -26z"/>
 <path d="M10067 835 c9 -19 18 -33 21 -31 4 5 -26 66 -33 66 -3 0 3 -16 12 -35z"/>
 <path d="M12303 863 c4 -3 10 -3 14 0 3 4 0 7 -7 7 -7 0 -10 -3 -7 -7z"/>
 <path d="M14045 860 c3 -5 8 -10 11 -10 3 0 2 5 -1 10 -3 6 -8 10 -11 10 -3 0 -2 -4 1 -10z"/>
 <path d="M14219 853 c-13 -16 -12 -17 4 -4 16 13 21 21 13 21 -2 0 -10 -8 -17 -17z"/>
 <path d="M14980 860 c0 -7 3 -10 7 -7 3 4 3 10 0 14 -4 3 -7 0 -7 -7z"/>
 <path d="M10100 856 c0 -11 40 -86 45 -86 3 0 -4 19 -16 43 -23 45 -29 54 -29 43z"/>
 <path d="M10600 850 c0 -7 3 -10 7 -7 3 4 3 10 0 14 -4 3 -7 0 -7 -7z"/>
 <path d="M12332 840 c0 -14 2 -19 5 -12 2 6 2 18 0 25 -3 6 -5 1 -5 -13z"/>
 <path d="M12849 839 c30 -10 56 -17 58 -15 5 5 -86 36 -101 35 -6 0 13 -9 43 -20z"/>
 <path d="M14254 829 c-16 -16 -22 -28 -14 -24 13 5 56 55 47 55 -2 0 -16 -14 -33 -31z"/>
 <path d="M14432 835 c0 -16 2 -22 5 -12 2 9 2 23 0 30 -3 6 -5 -1 -5 -18z"/>
 <path d="M14656 843 c-6 -14 -5 -15 5 -6 7 7 10 15 7 18 -3 3 -9 -2 -12 -12z"/>
 <path d="M10900 840 c0 -7 3 -10 7 -7 3 4 3 10 0 14 -4 3 -7 0 -7 -7z"/>
 <path d="M13720 841 c0 -10 19 -25 25 -20 1 2 -3 10 -11 17 -8 7 -14 8 -14 3z"/>
 <path d="M14370 840 c0 -7 3 -10 7 -7 3 4 3 10 0 14 -4 3 -7 0 -7 -7z"/>
 <path d="M15030 840 c0 -7 3 -10 7 -7 3 4 3 10 0 14 -4 3 -7 0 -7 -7z"/>
 <path d="M11510 830 c0 -7 3 -10 7 -7 3 4 3 10 0 14 -4 3 -7 0 -7 -7z"/>
 <path d="M12401 836 c8 -8 240 -86 254 -85 5 0 -42 18 -105 40 -145 49 -156 53 -149 45z"/>
 <path d="M10784 794 c-8 -20 -13 -38 -11 -41 3 -2 10 11 17 31 6 19 16 37 23 40 9 3 8 5 -1 5 -7 1 -20 -15 -28 -35z"/>
 <path d="M11956 821 c-4 -5 3 -7 14 -4 23 6 26 13 6 13 -8 0 -17 -4 -20 -9z"/>
 <path d="M14070 826 c0 -2 7 -7 16 -10 8 -3 12 -2 9 4 -6 10 -25 14 -25 6z"/>
 <path d="M14966 815 c-3 -9 -6 -22 -5 -28 0 -7 5 -1 10 12 5 13 8 26 5 28 -2 2 -6 -3 -10 -12z"/>
 <path d="M15183 823 c4 -3 10 -3 14 0 3 4 0 7 -7 7 -7 0 -10 -3 -7 -7z"/>
 <path d="M15290 823 c8 -3 27 -12 43 -20 15 -7 27 -11 27 -9 0 8 -58 36 -72 35 -9 0 -8 -2 2 -6z"/>
 <path d="M10586 805 c-3 -9 -6 -22 -5 -28 0 -7 5 -1 10 12 5 13 8 26 5 28 -2 2 -6 -3 -10 -12z"/>
 <path d="M12025 810 c27 -12 43 -12 25 0 -8 5 -22 9 -30 9 -10 0 -8 -3 5 -9z"/>
 <path d="M12960 805 c46 -18 64 -17 25 0 -16 8 -37 14 -45 14 -8 0 1 -7 20 -14z"/>
 <path d="M13689 806 c13 -16 51 -41 51 -33 0 2 -15 14 -32 27 -21 15 -28 17 -19 6z"/>
 <path d="M15150 810 c-9 -6 -10 -10 -3 -10 6 0 15 5 18 10 8 12 4 12 -15 0z"/>
 <path d="M10878 803 c7 -3 16 -2 19 1 4 3 -2 6 -13 5 -11 0 -14 -3 -6 -6z"/>
 <path d="M11270 800 c0 -7 3 -10 7 -7 3 4 3 10 0 14 -4 3 -7 0 -7 -7z"/>
 <path d="M13773 803 c4 -3 10 -3 14 0 3 4 0 7 -7 7 -7 0 -10 -3 -7 -7z"/>
 <path d="M14360 800 c0 -7 3 -10 7 -7 3 4 3 10 0 14 -4 3 -7 0 -7 -7z"/>
 <path d="M14624 798 c-4 -7 -3 -8 4 -4 12 7 16 16 8 16 -3 0 -8 -5 -12 -12z"/>
 <path d="M12095 790 c27 -12 43 -12 25 0 -8 5 -22 9 -30 9 -10 0 -8 -3 5 -9z"/>
 <path d="M12316 785 c-3 -9 -6 -22 -5 -28 0 -7 5 -1 10 12 5 13 8 26 5 28 -2 2 -6 -3 -10 -12z"/>
 <path d="M13020 794 c0 -7 52 -25 57 -20 2 2 -10 8 -26 14 -17 6 -31 9 -31 6z"/>
 <path d="M13813 793 c4 -3 10 -3 14 0 3 4 0 7 -7 7 -7 0 -10 -3 -7 -7z"/>
 <path d="M14143 793 c4 -3 10 -3 14 0 3 4 0 7 -7 7 -7 0 -10 -3 -7 -7z"/>
 <path d="M14193 793 c4 -3 10 -3 14 0 3 4 0 7 -7 7 -7 0 -10 -3 -7 -7z"/>
 <path d="M14440 791 c0 -10 39 -46 43 -40 2 2 -7 14 -20 26 -13 12 -23 19 -23 14z"/>
 <path d="M14822 775 c0 -16 2 -22 5 -12 2 9 2 23 0 30 -3 6 -5 -1 -5 -18z"/>
 <path d="M10301 770 c14 -31 19 -36 19 -24 0 6 -7 19 -16 30 -14 18 -14 18 -3 -6z"/>
 <path d="M12351 783 c-1 -6 -4 -20 -7 -30 -5 -17 -5 -17 6 0 6 10 9 23 6 30 -3 9 -5 9 -5 0z"/>
 <path d="M15223 783 c4 -3 10 -3 14 0 3 4 0 7 -7 7 -7 0 -10 -3 -7 -7z"/>
 <path d="M15273 783 c4 -3 10 -3 14 0 3 4 0 7 -7 7 -7 0 -10 -3 -7 -7z"/>
 <path d="M11940 770 c0 -7 3 -10 7 -7 3 4 3 10 0 14 -4 3 -7 0 -7 -7z"/>
 <path d="M12153 773 c4 -3 10 -3 14 0 3 4 0 7 -7 7 -7 0 -10 -3 -7 -7z"/>
 <path d="M14350 770 c0 -7 3 -10 7 -7 3 4 3 10 0 14 -4 3 -7 0 -7 -7z"/>
 <path d="M14416 767 c3 -10 9 -15 12 -12 3 3 0 11 -7 18 -10 9 -11 8 -5 -6z"/>
 <path d="M14665 769 c-4 -6 -5 -12 -2 -15 2 -3 7 2 10 11 7 17 1 20 -8 4z"/>
 <path d="M15010 770 c0 -7 3 -10 7 -7 3 4 3 10 0 14 -4 3 -7 0 -7 -7z"/>
 <path d="M15095 741 c-9 -22 -15 -45 -12 -53 4 -8 6 -7 6 5 1 10 8 32 17 48 8 17 14 33 11 35 -2 2 -12 -13 -22 -35z"/>
 <path d="M15365 770 c-4 -6 -16 -8 -28 -5 -17 5 -19 4 -7 -4 21 -15 37 -13 44 4 6 17 0 20 -9 5z"/>
 <path d="M10470 765 c0 -5 5 -17 10 -25 5 -8 10 -10 10 -5 0 6 -5 17 -10 25 -5 8 -10 11 -10 5z"/>
 <path d="M11490 760 c0 -7 3 -10 7 -7 3 4 3 10 0 14 -4 3 -7 0 -7 -7z"/>
 <path d="M13115 760 c27 -12 43 -12 25 0 -8 5 -22 9 -30 9 -10 0 -8 -3 5 -9z"/>
 <path d="M15169 753 c-13 -16 -12 -17 4 -4 16 13 21 21 13 21 -2 0 -10 -8 -17 -17z"/>
 <path d="M13818 753 c12 -2 30 -2 40 0 9 3 -1 5 -23 4 -22 0 -30 -2 -17 -4z"/>
 <path d="M14390 750 c0 -7 3 -10 7 -7 3 4 3 10 0 14 -4 3 -7 0 -7 -7z"/>
 <path d="M14950 750 c0 -7 3 -10 7 -7 3 4 3 10 0 14 -4 3 -7 0 -7 -7z"/>
 <path d="M10566 735 c-3 -9 -6 -22 -5 -28 0 -7 5 -1 10 12 5 13 8 26 5 28 -2 2 -6 -3 -10 -12z"/>
 <path d="M12673 743 c4 -3 10 -3 14 0 3 4 0 7 -7 7 -7 0 -10 -3 -7 -7z"/>
 <path d="M13185 740 c27 -12 43 -12 25 0 -8 5 -22 9 -30 9 -10 0 -8 -3 5 -9z"/>
 <path d="M14355 740 c3 -5 8 -10 11 -10 3 0 2 5 -1 10 -3 6 -8 10 -11 10 -3 0 -2 -4 1 -10z"/>
 <path d="M14576 733 c-6 -14 -5 -15 5 -6 7 7 10 15 7 18 -3 3 -9 -2 -12 -12z"/>
 <path d="M14779 712 c5 -34 6 -35 9 -8 2 16 0 32 -5 37 -5 5 -7 -7 -4 -29z"/>
 <path d="M15493 743 c4 -3 10 -3 14 0 3 4 0 7 -7 7 -7 0 -10 -3 -7 -7z"/>
 <path d="M15533 743 c9 -2 25 -2 35 0 9 3 1 5 -18 5 -19 0 -27 -2 -17 -5z"/>
 <path d="M11250 730 c0 -7 3 -10 7 -7 3 4 3 10 0 14 -4 3 -7 0 -7 -7z"/>
 <path d="M14445 720 c10 -11 20 -20 23 -20 3 0 -3 9 -13 20 -10 11 -20 20 -23 20 -3 0 3 -9 13 -20z"/>
 <path d="M15000 730 c0 -7 3 -10 7 -7 3 4 3 10 0 14 -4 3 -7 0 -7 -7z"/>
 <path d="M15455 730 c-3 -6 1 -7 9 -4 18 7 21 14 7 14 -6 0 -13 -4 -16 -10z"/>
 <path d="M15610 736 c0 -3 14 -12 30 -21 17 -9 30 -13 30 -11 0 3 -13 12 -30 21 -16 9 -30 13 -30 11z"/>
 <path d="M10761 723 c-1 -6 -4 -20 -7 -30 -5 -17 -5 -17 6 0 6 10 9 23 6 30 -3 9 -5 9 -5 0z"/>
 <path d="M12296 715 c-3 -9 -6 -22 -5 -28 0 -7 5 -1 10 12 5 13 8 26 5 28 -2 2 -6 -3 -10 -12z"/>
 <path d="M13255 720 c27 -12 43 -12 25 0 -8 5 -22 9 -30 9 -10 0 -8 -3 5 -9z"/>
 <path d="M14940 720 c0 -7 3 -10 7 -7 3 4 3 10 0 14 -4 3 -7 0 -7 -7z"/>
 <path d="M15145 719 c-4 -6 -5 -12 -2 -15 2 -3 7 2 10 11 7 17 1 20 -8 4z"/>
 <path d="M10142 675 c12 -24 23 -43 26 -41 4 5 -36 86 -43 86 -3 0 5 -20 17 -45z"/>
 <path d="M12330 710 c0 -7 3 -10 7 -7 3 4 3 10 0 14 -4 3 -7 0 -7 -7z"/>
 <path d="M12773 713 c4 -3 10 -3 14 0 3 4 0 7 -7 7 -7 0 -10 -3 -7 -7z"/>
 <path d="M14500 710 c0 -7 3 -10 7 -7 3 4 3 10 0 14 -4 3 -7 0 -7 -7z"/>
 <path d="M11240 700 c0 -7 3 -10 7 -7 3 4 3 10 0 14 -4 3 -7 0 -7 -7z"/>
 <path d="M11920 700 c0 -7 3 -10 7 -7 3 4 3 10 0 14 -4 3 -7 0 -7 -7z"/>
 <path d="M13325 700 c27 -12 43 -12 25 0 -8 5 -22 9 -30 9 -10 0 -8 -3 5 -9z"/>
 <path d="M14551 694 c0 -11 3 -14 6 -6 3 7 2 16 -1 19 -3 4 -6 -2 -5 -13z"/>
 <path d="M14615 699 c-4 -6 -5 -12 -2 -15 2 -3 7 2 10 11 7 17 1 20 -8 4z"/>
 <path d="M15485 690 c-38 -25 -30 -25 20 0 22 11 33 20 25 20 -8 0 -28 -9 -45 -20z"/>
 <path d="M15553 703 c4 -3 10 -3 14 0 3 4 0 7 -7 7 -7 0 -10 -3 -7 -7z"/>
 <path d="M10341 680 c14 -31 19 -36 19 -24 0 6 -7 19 -16 30 -14 18 -14 18 -3 -6z"/>
 <path d="M11470 690 c0 -7 3 -10 7 -7 3 4 3 10 0 14 -4 3 -7 0 -7 -7z"/>
 <path d="M15590 696 c0 -2 7 -7 16 -10 8 -3 12 -2 9 4 -6 10 -25 14 -25 6z"/>
 <path d="M12873 683 c4 -3 10 -3 14 0 3 4 0 7 -7 7 -7 0 -10 -3 -7 -7z"/>
 <path d="M13395 680 c27 -12 43 -12 25 0 -8 5 -22 9 -30 9 -10 0 -8 -3 5 -9z"/>
 <path d="M14926 675 c-3 -9 -6 -22 -5 -28 0 -7 5 -1 10 12 5 13 8 26 5 28 -2 2 -6 -3 -10 -12z"/>
 <path d="M15130 680 c0 -7 3 -10 7 -7 3 4 3 10 0 14 -4 3 -7 0 -7 -7z"/>
 <path d="M15404 678 c-4 -7 -3 -8 4 -4 12 7 16 16 8 16 -3 0 -8 -5 -12 -12z"/>
 <path d="M15675 680 c-4 -6 -16 -8 -28 -5 -20 5 -20 5 -3 -6 14 -9 21 -8 34 5 9 9 13 16 10 16 -4 0 -10 -5 -13 -10z"/>
 <path d="M10510 675 c0 -5 4 -16 9 -24 8 -12 12 -12 25 -2 9 8 16 18 16 24 0 6 -6 2 -14 -8 -13 -18 -13 -18 -24 1 -6 10 -11 15 -12 9z"/>
 <path d="M13447 669 c7 -7 15 -10 18 -7 3 3 -2 9 -12 12 -14 6 -15 5 -6 -5z"/>
 <path d="M14831 664 c0 -11 3 -14 6 -6 3 7 2 16 -1 19 -3 4 -6 -2 -5 -13z"/>
 <path d="M10191 665 c0 -5 6 -21 14 -35 8 -14 14 -20 14 -15 0 6 -6 21 -14 35 -8 14 -14 21 -14 15z"/>
 <path d="M11230 660 c0 -7 3 -10 7 -7 3 4 3 10 0 14 -4 3 -7 0 -7 -7z"/>
 <path d="M12140 660 c0 -7 3 -10 7 -7 3 4 3 10 0 14 -4 3 -7 0 -7 -7z"/>
 <path d="M12943 663 c4 -3 10 -3 14 0 3 4 0 7 -7 7 -7 0 -10 -3 -7 -7z"/>
 <path d="M13485 661 c6 -5 24 -13 40 -17 39 -9 30 0 -15 15 -19 6 -30 7 -25 2z"/>
 <path d="M14980 660 c0 -7 3 -10 7 -7 3 4 3 10 0 14 -4 3 -7 0 -7 -7z"/>
 <path d="M15843 663 c4 -3 10 -3 14 0 3 4 0 7 -7 7 -7 0 -10 -3 -7 -7z"/>
 <path d="M10741 653 c-1 -6 -4 -20 -7 -30 -5 -17 -5 -17 6 0 6 10 9 23 6 30 -3 9 -5 9 -5 0z"/>
 <path d="M10990 653 c8 -3 22 -11 30 -17 13 -10 13 -9 1 7 -7 9 -21 17 -30 16 -13 0 -14 -1 -1 -6z"/>
 <path d="M12276 645 c-3 -9 -6 -22 -5 -28 0 -7 5 -1 10 12 5 13 8 26 5 28 -2 2 -6 -3 -10 -12z"/>
 <path d="M15445 649 c-4 -6 -5 -12 -2 -15 2 -3 7 2 10 11 7 17 1 20 -8 4z"/>
 <path d="M15880 650 c8 -5 20 -10 25 -10 6 0 3 5 -5 10 -8 5 -19 10 -25 10 -5 0 -3 -5 5 -10z"/>
 <path d="M12311 643 c-1 -6 -4 -20 -7 -30 -5 -17 -5 -17 6 0 6 10 9 23 6 30 -3 9 -5 9 -5 0z"/>
 <path d="M13013 643 c4 -3 10 -3 14 0 3 4 0 7 -7 7 -7 0 -10 -3 -7 -7z"/>
 <path d="M15755 640 c3 -5 8 -10 11 -10 2 0 4 5 4 10 0 6 -5 10 -11 10 -5 0 -7 -4 -4 -10z"/>
 <path d="M11900 630 c0 -7 3 -10 7 -7 3 4 3 10 0 14 -4 3 -7 0 -7 -7z"/>
 <path d="M12697 629 c7 -7 15 -10 18 -7 3 3 -2 9 -12 12 -14 6 -15 5 -6 -5z"/>
 <path d="M13043 633 c4 -3 10 -3 14 0 3 4 0 7 -7 7 -7 0 -10 -3 -7 -7z"/>
 <path d="M13563 633 c4 -3 10 -3 14 0 3 4 0 7 -7 7 -7 0 -10 -3 -7 -7z"/>
 <path d="M14970 630 c0 -7 3 -10 7 -7 3 4 3 10 0 14 -4 3 -7 0 -7 -7z"/>
 <path d="M11450 620 c0 -7 3 -10 7 -7 3 4 3 10 0 14 -4 3 -7 0 -7 -7z"/>
 <path d="M12670 620 c0 -7 3 -10 7 -7 3 4 3 10 0 14 -4 3 -7 0 -7 -7z"/>
 <path d="M12730 624 c0 -7 52 -25 57 -20 2 2 -10 8 -26 14 -17 6 -31 9 -31 6z"/>
 <path d="M13090 620 c8 -5 22 -9 30 -9 10 0 8 3 -5 9 -27 12 -43 12 -25 0z"/>
 <path d="M13615 620 c27 -12 43 -12 25 0 -8 5 -22 9 -30 9 -10 0 -8 -3 5 -9z"/>
 <path d="M15130 620 c0 -7 3 -10 7 -7 3 4 3 10 0 14 -4 3 -7 0 -7 -7z"/>
 <path d="M15380 620 c0 -7 3 -10 7 -7 3 4 3 10 0 14 -4 3 -7 0 -7 -7z"/>
 <path d="M15855 618 c11 -6 26 -18 33 -26 6 -9 12 -11 12 -4 0 12 -39 42 -55 42 -5 0 -1 -6 10 -12z"/>
 <path d="M11055 610 c3 -5 8 -10 11 -10 3 0 2 5 -1 10 -3 6 -8 10 -11 10 -3 0 -2 -4 1 -10z"/>
 <path d="M13667 609 c7 -7 15 -10 18 -7 3 3 -2 9 -12 12 -14 6 -15 5 -6 -5z"/>
 <path d="M14790 616 c0 -2 7 -7 16 -10 8 -3 12 -2 9 4 -6 10 -25 14 -25 6z"/>
 <path d="M14910 610 c0 -7 3 -10 7 -7 3 4 3 10 0 14 -4 3 -7 0 -7 -7z"/>
 <path d="M15081 609 c-1 -8 6 -24 15 -35 15 -19 15 -19 6 1 -5 11 -12 27 -15 35 -5 13 -6 13 -6 -1z"/>
 <path d="M15447 609 c7 -7 15 -10 18 -7 3 3 -2 9 -12 12 -14 6 -15 5 -6 -5z"/>
 <path d="M10381 590 c14 -31 19 -36 19 -24 0 6 -7 19 -16 30 -14 18 -14 18 -3 -6z"/>
 <path d="M11890 600 c0 -7 3 -10 7 -7 3 4 3 10 0 14 -4 3 -7 0 -7 -7z"/>
 <path d="M12800 604 c0 -7 52 -25 57 -20 2 2 -10 8 -26 14 -17 6 -31 9 -31 6z"/>
 <path d="M10960 590 c0 -7 3 -10 7 -7 3 4 3 10 0 14 -4 3 -7 0 -7 -7z"/>
 <path d="M11210 590 c0 -7 3 -10 7 -7 3 4 3 10 0 14 -4 3 -7 0 -7 -7z"/>
 <path d="M11440 590 c0 -7 3 -10 7 -7 3 4 3 10 0 14 -4 3 -7 0 -7 -7z"/>
 <path d="M12120 590 c0 -7 3 -10 7 -7 3 4 3 10 0 14 -4 3 -7 0 -7 -7z"/>
 <path d="M13183 593 c4 -3 10 -3 14 0 3 4 0 7 -7 7 -7 0 -10 -3 -7 -7z"/>
 <path d="M13713 593 c4 -3 10 -3 14 0 3 4 0 7 -7 7 -7 0 -10 -3 -7 -7z"/>
 <path d="M15140 591 c0 -6 4 -13 10 -16 6 -3 7 1 4 9 -7 18 -14 21 -14 7z"/>
 <path d="M15940 591 c0 -6 4 -13 10 -16 6 -3 7 1 4 9 -7 18 -14 21 -14 7z"/>
 <path d="M10721 583 c-1 -6 -4 -20 -7 -30 -5 -17 -5 -17 6 0 6 10 9 23 6 30 -3 9 -5 9 -5 0z"/>
 <path d="M12256 575 c-3 -9 -6 -22 -5 -28 0 -7 5 -1 10 12 5 13 8 26 5 28 -2 2 -6 -3 -10 -12z"/>
 <path d="M12656 575 c-3 -9 -6 -22 -5 -28 0 -7 5 -1 10 12 5 13 8 26 5 28 -2 2 -6 -3 -10 -12z"/>
 <path d="M12870 584 c0 -7 52 -25 57 -20 2 2 -10 8 -26 14 -17 6 -31 9 -31 6z"/>
 <path d="M13753 583 c4 -3 10 -3 14 0 3 4 0 7 -7 7 -7 0 -10 -3 -7 -7z"/>
 <path d="M14917 578 c2 -5 13 -8 23 -8 10 0 21 3 23 8 3 4 -8 7 -23 7 -15 0 -26 -3 -23 -7z"/>
 <path d="M15523 583 c4 -3 10 -3 14 0 3 4 0 7 -7 7 -7 0 -10 -3 -7 -7z"/>
 <path d="M12291 573 c-1 -6 -4 -20 -7 -30 -5 -17 -5 -17 6 0 6 10 9 23 6 30 -3 9 -5 9 -5 0z"/>
 <path d="M13253 573 c4 -3 10 -3 14 0 3 4 0 7 -7 7 -7 0 -10 -3 -7 -7z"/>
 <path d="M11880 560 c0 -7 3 -10 7 -7 3 4 3 10 0 14 -4 3 -7 0 -7 -7z"/>
 <path d="M13293 563 c4 -3 10 -3 14 0 3 4 0 7 -7 7 -7 0 -10 -3 -7 -7z"/>
 <path d="M13823 563 c4 -3 10 -3 14 0 3 4 0 7 -7 7 -7 0 -10 -3 -7 -7z"/>
 <path d="M15470 560 c8 -5 22 -9 30 -9 10 0 8 3 -5 9 -27 12 -43 12 -25 0z"/>
 <path d="M15590 568 c3 -3 21 -10 40 -17 19 -6 30 -7 25 -2 -6 5 -23 13 -40 17 -16 4 -28 5 -25 2z"/>
 <path d="M11431 553 c-1 -6 -4 -20 -7 -30 -5 -17 -5 -17 6 0 6 10 9 23 6 30 -3 9 -5 9 -5 0z"/>
 <path d="M12110 550 c0 -7 3 -10 7 -7 3 4 3 10 0 14 -4 3 -7 0 -7 -7z"/>
 <path d="M12965 550 c27 -12 43 -12 25 0 -8 5 -22 9 -30 9 -10 0 -8 -3 5 -9z"/>
 <path d="M13323 553 c4 -3 10 -3 14 0 3 4 0 7 -7 7 -7 0 -10 -3 -7 -7z"/>
 <path d="M13863 553 c4 -3 10 -3 14 0 3 4 0 7 -7 7 -7 0 -10 -3 -7 -7z"/>
 <path d="M15886 543 c-6 -14 -5 -15 5 -6 7 7 10 15 7 18 -3 3 -9 -2 -12 -12z"/>
 <path d="M13010 544 c0 -7 52 -25 57 -20 2 2 -10 8 -26 14 -17 6 -31 9 -31 6z"/>
 <path d="M13363 543 c4 -3 10 -3 14 0 3 4 0 7 -7 7 -7 0 -10 -3 -7 -7z"/>
 <path d="M13903 543 c4 -3 10 -3 14 0 3 4 0 7 -7 7 -7 0 -10 -3 -7 -7z"/>
 <path d="M15941 543 c-1 -6 -4 -20 -7 -30 -5 -17 -5 -17 6 0 6 10 9 23 6 30 -3 9 -5 9 -5 0z"/>
 <path d="M15203 533 c4 -3 10 -3 14 0 3 4 0 7 -7 7 -7 0 -10 -3 -7 -7z"/>
 <path d="M15575 526 c11 -8 16 -19 12 -30 -4 -10 -3 -15 3 -11 16 10 12 42 -6 49 -25 10 -29 7 -9 -8z"/>
 <path d="M10227 495 c9 -19 18 -33 21 -31 4 5 -26 66 -33 66 -3 0 3 -16 12 -35z"/>
 <path d="M10940 520 c0 -7 3 -10 7 -7 3 4 3 10 0 14 -4 3 -7 0 -7 -7z"/>
 <path d="M11182 510 c-7 -11 -8 -20 -3 -20 9 0 24 30 18 36 -1 2 -8 -6 -15 -16z"/>
 <path d="M12100 520 c0 -7 3 -10 7 -7 3 4 3 10 0 14 -4 3 -7 0 -7 -7z"/>
 <path d="M13433 523 c4 -3 10 -3 14 0 3 4 0 7 -7 7 -7 0 -10 -3 -7 -7z"/>
 <path d="M13973 523 c4 -3 10 -3 14 0 3 4 0 7 -7 7 -7 0 -10 -3 -7 -7z"/>
 <path d="M15140 520 c35 -24 54 -31 30 -11 -14 11 -29 21 -35 21 -5 0 -3 -5 5 -10z"/>
 <path d="M15233 523 c4 -3 10 -3 14 0 3 4 0 7 -7 7 -7 0 -10 -3 -7 -7z"/>
 <path d="M15270 526 c0 -2 7 -9 15 -16 13 -11 14 -10 9 4 -5 14 -24 23 -24 12z"/>
 <path d="M15420 520 c0 -7 3 -10 7 -7 3 4 3 10 0 14 -4 3 -7 0 -7 -7z"/>
 <path d="M15650 520 c0 -7 3 -10 7 -7 3 4 3 10 0 14 -4 3 -7 0 -7 -7z"/>
 <path d="M15850 520 c-9 -6 -10 -10 -3 -10 6 0 15 5 18 10 8 12 4 12 -15 0z"/>
 <path d="M10260 516 c0 -11 40 -86 45 -86 3 0 -4 19 -16 43 -23 45 -29 54 -29 43z"/>
 <path d="M10701 513 c-1 -6 -4 -20 -7 -30 -5 -17 -5 -17 6 0 6 10 9 23 6 30 -3 9 -5 9 -5 0z"/>
 <path d="M12236 505 c-3 -9 -6 -22 -5 -28 0 -7 5 -1 10 12 5 13 8 26 5 28 -2 2 -6 -3 -10 -12z"/>
 <path d="M13105 510 c27 -12 43 -12 25 0 -8 5 -22 9 -30 9 -10 0 -8 -3 5 -9z"/>
 <path d="M13473 513 c4 -3 10 -3 14 0 3 4 0 7 -7 7 -7 0 -10 -3 -7 -7z"/>
 <path d="M14013 513 c4 -3 10 -3 14 0 3 4 0 7 -7 7 -7 0 -10 -3 -7 -7z"/>
 <path d="M14910 516 c0 -2 7 -9 15 -16 9 -7 15 -8 15 -2 0 5 -7 12 -15 16 -8 3 -15 4 -15 2z"/>
 <path d="M10420 505 c0 -5 5 -17 10 -25 5 -8 10 -10 10 -5 0 6 -5 17 -10 25 -5 8 -10 11 -10 5z"/>
 <path d="M12270 500 c0 -7 3 -10 7 -7 3 4 3 10 0 14 -4 3 -7 0 -7 -7z"/>
 <path d="M13513 503 c4 -3 10 -3 14 0 3 4 0 7 -7 7 -7 0 -10 -3 -7 -7z"/>
 <path d="M14077 499 c7 -7 15 -10 18 -7 3 3 -2 9 -12 12 -14 6 -15 5 -6 -5z"/>
 <path d="M15380 502 c0 -7 15 -27 33 -45 17 -18 22 -21 11 -7 -12 14 -26 34 -32 45 -6 11 -12 14 -12 7z"/>
 <path d="M15778 503 c7 -3 16 -2 19 1 4 3 -2 6 -13 5 -11 0 -14 -3 -6 -6z"/>
 <path d="M11860 490 c0 -7 3 -10 7 -7 3 4 3 10 0 14 -4 3 -7 0 -7 -7z"/>
 <path d="M13175 490 c27 -12 43 -12 25 0 -8 5 -22 9 -30 9 -10 0 -8 -3 5 -9z"/>
 <path d="M13560 490 c8 -5 22 -9 30 -9 10 0 8 3 -5 9 -27 12 -43 12 -25 0z"/>
 <path d="M14117 489 c7 -7 15 -10 18 -7 3 3 -2 9 -12 12 -14 6 -15 5 -6 -5z"/>
 <path d="M15636 485 c-9 -26 -7 -32 5 -12 6 10 9 21 6 23 -2 3 -7 -2 -11 -11z"/>
 <path d="M15728 483 c-8 -10 -18 -25 -22 -33 -4 -8 0 -6 8 5 9 11 24 26 33 33 9 6 12 12 6 12 -5 0 -17 -8 -25 -17z"/>
 <path d="M11410 480 c0 -7 3 -10 7 -7 3 4 3 10 0 14 -4 3 -7 0 -7 -7z"/>
 <path d="M12630 480 c0 -7 3 -10 7 -7 3 4 3 10 0 14 -4 3 -7 0 -7 -7z"/>
 <path d="M14157 479 c7 -7 15 -10 18 -7 3 3 -2 9 -12 12 -14 6 -15 5 -6 -5z"/>
 <path d="M15223 483 c4 -3 10 -3 14 0 3 4 0 7 -7 7 -7 0 -10 -3 -7 -7z"/>
 <path d="M15273 483 c4 -3 10 -3 14 0 3 4 0 7 -7 7 -7 0 -10 -3 -7 -7z"/>
 <path d="M15890 480 c-8 -5 -10 -10 -5 -10 6 0 17 5 25 10 8 5 11 10 5 10 -5 0 -17 -5 -25 -10z"/>
 <path d="M10951 477 c2 -1 13 -9 24 -17 19 -14 19 -14 6 3 -7 9 -18 17 -24 17 -6 0 -8 -1 -6 -3z"/>
 <path d="M11600 454 c-6 -14 -10 -31 -9 -37 0 -7 5 2 11 18 6 17 16 33 22 37 8 5 7 8 -2 8 -7 0 -17 -12 -22 -26z"/>
 <path d="M13233 473 c4 -3 10 -3 14 0 3 4 0 7 -7 7 -7 0 -10 -3 -7 -7z"/>
 <path d="M13623 473 c4 -3 10 -3 14 0 3 4 0 7 -7 7 -7 0 -10 -3 -7 -7z"/>
 <path d="M14197 469 c7 -7 15 -10 18 -7 3 3 -2 9 -12 12 -14 6 -15 5 -6 -5z"/>
 <path d="M13670 466 c0 -2 7 -7 16 -10 8 -3 12 -2 9 4 -6 10 -25 14 -25 6z"/>
 <path d="M14237 459 c7 -7 15 -10 18 -7 3 3 -2 9 -12 12 -14 6 -15 5 -6 -5z"/>
 <path d="M14919 453 c-13 -16 -12 -17 4 -4 16 13 21 21 13 21 -2 0 -10 -8 -17 -17z"/>
 <path d="M15464 456 c11 -9 24 -16 30 -16 12 0 7 5 -24 19 -24 11 -24 11 -6 -3z"/>
 <path d="M15563 463 c4 -3 10 -3 14 0 3 4 0 7 -7 7 -7 0 -10 -3 -7 -7z"/>
 <path d="M15818 463 c7 -3 16 -2 19 1 4 3 -2 6 -13 5 -11 0 -14 -3 -6 -6z"/>
 <path d="M11657 449 c7 -7 15 -10 18 -7 3 3 -2 9 -12 12 -14 6 -15 5 -6 -5z"/>
 <path d="M12080 450 c0 -7 3 -10 7 -7 3 4 3 10 0 14 -4 3 -7 0 -7 -7z"/>
 <path d="M13713 453 c4 -3 10 -3 14 0 3 4 0 7 -7 7 -7 0 -10 -3 -7 -7z"/>
 <path d="M14278 448 c5 -5 16 -8 23 -6 8 3 3 7 -10 11 -17 4 -21 3 -13 -5z"/>
 <path d="M10681 443 c-1 -6 -4 -20 -7 -30 -5 -17 -5 -17 6 0 6 10 9 23 6 30 -3 9 -5 9 -5 0z"/>
 <path d="M12216 435 c-3 -9 -6 -22 -5 -28 0 -7 5 -1 10 12 5 13 8 26 5 28 -2 2 -6 -3 -10 -12z"/>
 <path d="M13753 443 c4 -3 10 -3 14 0 3 4 0 7 -7 7 -7 0 -10 -3 -7 -7z"/>
 <path d="M15755 439 c-4 -6 -5 -12 -2 -15 2 -3 7 2 10 11 7 17 1 20 -8 4z"/>
 <path d="M12251 433 c-1 -6 -4 -20 -7 -30 -5 -17 -5 -17 6 0 6 10 9 23 6 30 -3 9 -5 9 -5 0z"/>
 <path d="M13793 433 c4 -3 10 -3 14 0 3 4 0 7 -7 7 -7 0 -10 -3 -7 -7z"/>
 <path d="M14333 433 c4 -3 10 -3 14 0 3 4 0 7 -7 7 -7 0 -10 -3 -7 -7z"/>
 <path d="M10460 410 c6 -11 15 -20 20 -20 6 0 2 9 -7 20 -10 11 -19 20 -21 20 -1 0 2 -9 8 -20z"/>
 <path d="M11020 427 c0 -2 16 -22 37 -43 30 -33 33 -34 15 -8 -21 30 -52 61 -52 51z"/>
 <path d="M11705 410 c10 -11 23 -20 28 -20 6 0 0 9 -13 20 -13 11 -25 20 -28 20 -3 0 3 -9 13 -20z"/>
 <path d="M11840 420 c0 -7 3 -10 7 -7 3 4 3 10 0 14 -4 3 -7 0 -7 -7z"/>
 <path d="M13240 420 c0 -7 3 -10 7 -7 3 4 3 10 0 14 -4 3 -7 0 -7 -7z"/>
 <path d="M13833 423 c4 -3 10 -3 14 0 3 4 0 7 -7 7 -7 0 -10 -3 -7 -7z"/>
 <path d="M14373 423 c4 -3 10 -3 14 0 3 4 0 7 -7 7 -7 0 -10 -3 -7 -7z"/>
 <path d="M11390 410 c0 -7 3 -10 7 -7 3 4 3 10 0 14 -4 3 -7 0 -7 -7z"/>
 <path d="M12610 410 c0 -7 3 -10 7 -7 3 4 3 10 0 14 -4 3 -7 0 -7 -7z"/>
 <path d="M12829 394 c-5 -15 -8 -29 -5 -31 2 -2 8 10 14 26 13 38 5 41 -9 5z"/>
 <path d="M13873 413 c4 -3 10 -3 14 0 3 4 0 7 -7 7 -7 0 -10 -3 -7 -7z"/>
 <path d="M15463 413 c4 -3 10 -3 14 0 3 4 0 7 -7 7 -7 0 -10 -3 -7 -7z"/>
 <path d="M12913 403 c4 -3 10 -3 14 0 3 4 0 7 -7 7 -7 0 -10 -3 -7 -7z"/>
 <path d="M13913 403 c4 -3 10 -3 14 0 3 4 0 7 -7 7 -7 0 -10 -3 -7 -7z"/>
 <path d="M14443 403 c4 -3 10 -3 14 0 3 4 0 7 -7 7 -7 0 -10 -3 -7 -7z"/>
 <path d="M14477 399 c7 -7 15 -10 18 -7 3 3 -2 9 -12 12 -14 6 -15 5 -6 -5z"/>
 <path d="M15518 403 c7 -3 16 -2 19 1 4 3 -2 6 -13 5 -11 0 -14 -3 -6 -6z"/>
 <path d="M15750 401 c0 -10 39 -46 43 -40 2 2 -7 14 -20 26 -13 12 -23 19 -23 14z"/>
 <path d="M11830 390 c0 -7 3 -10 7 -7 3 4 3 10 0 14 -4 3 -7 0 -7 -7z"/>
 <path d="M12953 393 c4 -3 10 -3 14 0 3 4 0 7 -7 7 -7 0 -10 -3 -7 -7z"/>
 <path d="M13960 396 c0 -2 7 -7 16 -10 8 -3 12 -2 9 4 -6 10 -25 14 -25 6z"/>
 <path d="M11380 380 c0 -7 3 -10 7 -7 3 4 3 10 0 14 -4 3 -7 0 -7 -7z"/>
 <path d="M11576 375 c-3 -9 -6 -22 -5 -28 0 -7 5 -1 10 12 5 13 8 26 5 28 -2 2 -6 -3 -10 -12z"/>
 <path d="M12060 380 c0 -7 3 -10 7 -7 3 4 3 10 0 14 -4 3 -7 0 -7 -7z"/>
 <path d="M12983 383 c4 -3 10 -3 14 0 3 4 0 7 -7 7 -7 0 -10 -3 -7 -7z"/>
 <path d="M14000 386 c0 -2 9 -6 20 -9 11 -3 18 -1 14 4 -5 9 -34 13 -34 5z"/>
 <path d="M14523 383 c4 -3 10 -3 14 0 3 4 0 7 -7 7 -7 0 -10 -3 -7 -7z"/>
 <path d="M14557 379 c7 -7 15 -10 18 -7 3 3 -2 9 -12 12 -14 6 -15 5 -6 -5z"/>
 <path d="M10302 335 c12 -24 23 -43 26 -41 4 5 -36 86 -43 86 -3 0 5 -20 17 -45z"/>
 <path d="M10660 370 c0 -7 3 -10 7 -7 3 4 3 10 0 14 -4 3 -7 0 -7 -7z"/>
 <path d="M11755 360 c10 -11 20 -20 22 -20 2 0 -2 9 -9 20 -7 11 -17 20 -22 20 -5 0 -1 -9 9 -20z"/>
 <path d="M12196 365 c-3 -9 -6 -22 -5 -28 0 -7 5 -1 10 12 5 13 8 26 5 28 -2 2 -6 -3 -10 -12z"/>
 <path d="M13473 373 c4 -3 10 -3 14 0 3 4 0 7 -7 7 -7 0 -10 -3 -7 -7z"/>
 <path d="M13623 373 c4 -3 10 -3 14 0 3 4 0 7 -7 7 -7 0 -10 -3 -7 -7z"/>
 <path d="M14053 373 c4 -3 10 -3 14 0 3 4 0 7 -7 7 -7 0 -10 -3 -7 -7z"/>
 <path d="M14607 369 c7 -7 15 -10 18 -7 3 3 -2 9 -12 12 -14 6 -15 5 -6 -5z"/>
 <path d="M15725 362 c11 -13 29 -28 40 -34 21 -11 18 -8 -30 32 -29 24 -29 24 -10 2z"/>
 <path d="M10330 366 c0 -11 50 -106 55 -106 3 0 -7 24 -21 53 -28 55 -34 65 -34 53z"/>
 <path d="M10573 363 c4 -3 10 -3 14 0 3 4 0 7 -7 7 -7 0 -10 -3 -7 -7z"/>
 <path d="M12230 360 c0 -7 3 -10 7 -7 3 4 3 10 0 14 -4 3 -7 0 -7 -7z"/>
 <path d="M13053 363 c4 -3 10 -3 14 0 3 4 0 7 -7 7 -7 0 -10 -3 -7 -7z"/>
 <path d="M13443 363 c4 -3 10 -3 14 0 3 4 0 7 -7 7 -7 0 -10 -3 -7 -7z"/>
 <path d="M13700 355 c46 -18 64 -17 25 0 -16 8 -37 14 -45 14 -8 0 1 -7 20 -14z"/>
 <path d="M14093 363 c4 -3 10 -3 14 0 3 4 0 7 -7 7 -7 0 -10 -3 -7 -7z"/>
 <path d="M14647 359 c7 -7 15 -10 18 -7 3 3 -2 9 -12 12 -14 6 -15 5 -6 -5z"/>
 <path d="M10610 356 c0 -2 7 -7 16 -10 8 -3 12 -2 9 4 -6 10 -25 14 -25 6z"/>
 <path d="M11820 350 c0 -7 3 -10 7 -7 3 4 3 10 0 14 -4 3 -7 0 -7 -7z"/>
 <path d="M13220 350 c0 -7 3 -10 7 -7 3 4 3 10 0 14 -4 3 -7 0 -7 -7z"/>
 <path d="M14143 353 c4 -3 10 -3 14 0 3 4 0 7 -7 7 -7 0 -10 -3 -7 -7z"/>
 <path d="M14687 349 c7 -7 15 -10 18 -7 3 3 -2 9 -12 12 -14 6 -15 5 -6 -5z"/>
 <path d="M15818 353 c7 -3 16 -2 19 1 4 3 -2 6 -13 5 -11 0 -14 -3 -6 -6z"/>
 <path d="M11371 343 c-1 -6 -4 -20 -7 -30 -5 -17 -5 -17 6 0 6 10 9 23 6 30 -3 9 -5 9 -5 0z"/>
 <path d="M12590 340 c0 -7 3 -10 7 -7 3 4 3 10 0 14 -4 3 -7 0 -7 -7z"/>
 <path d="M13123 343 c4 -3 10 -3 14 0 3 4 0 7 -7 7 -7 0 -10 -3 -7 -7z"/>
 <path d="M13362 313 l-38 -38 36 30 c19 16 39 33 45 37 5 5 6 8 2 8 -4 0 -25 -17 -45 -37z"/>
 <path d="M14183 343 c4 -3 10 -3 14 0 3 4 0 7 -7 7 -7 0 -10 -3 -7 -7z"/>
 <path d="M11107 305 c9 -19 18 -33 21 -31 4 5 -26 66 -33 66 -3 0 3 -16 12 -35z"/>
 <path d="M12811 333 c-1 -6 -4 -20 -7 -30 -5 -17 -5 -17 6 0 6 10 9 23 6 30 -3 9 -5 9 -5 0z"/>
 <path d="M13163 333 c4 -3 10 -3 14 0 3 4 0 7 -7 7 -7 0 -10 -3 -7 -7z"/>
 <path d="M13770 337 c0 -2 19 -17 43 -32 23 -16 37 -22 30 -14 -12 15 -73 53 -73 46z"/>
 <path d="M14220 336 c0 -2 9 -6 20 -9 11 -3 18 -1 14 4 -5 9 -34 13 -34 5z"/>
 <path d="M14743 333 c4 -3 10 -3 14 0 3 4 0 7 -7 7 -7 0 -10 -3 -7 -7z"/>
 <path d="M13198 323 c7 -3 16 -2 19 1 4 3 -2 6 -13 5 -11 0 -14 -3 -6 -6z"/>
 <path d="M14283 323 c4 -3 10 -3 14 0 3 4 0 7 -7 7 -7 0 -10 -3 -7 -7z"/>
 <path d="M14783 323 c4 -3 10 -3 14 0 3 4 0 7 -7 7 -7 0 -10 -3 -7 -7z"/>
 <path d="M15854 318 c-4 -7 -3 -8 4 -4 12 7 16 16 8 16 -3 0 -8 -5 -12 -12z"/>
 <path d="M11569 306 c13 -16 51 -41 51 -33 0 2 -15 14 -32 27 -21 15 -28 17 -19 6z"/>
 <path d="M12040 310 c0 -7 3 -10 7 -7 3 4 3 10 0 14 -4 3 -7 0 -7 -7z"/>
 <path d="M14323 313 c4 -3 10 -3 14 0 3 4 0 7 -7 7 -7 0 -10 -3 -7 -7z"/>
 <path d="M12176 295 c-3 -9 -6 -22 -5 -28 0 -7 5 -1 10 12 5 13 8 26 5 28 -2 2 -6 -3 -10 -12z"/>
 <path d="M14863 303 c4 -3 10 -3 14 0 3 4 0 7 -7 7 -7 0 -10 -3 -7 -7z"/>
 <path d="M14897 299 c7 -7 15 -10 18 -7 3 3 -2 9 -12 12 -14 6 -15 5 -6 -5z"/>
 <path d="M12211 293 c-1 -6 -4 -20 -7 -30 -5 -17 -5 -17 6 0 6 10 9 23 6 30 -3 9 -5 9 -5 0z"/>
 <path d="M14413 293 c4 -3 10 -3 14 0 3 4 0 7 -7 7 -7 0 -10 -3 -7 -7z"/>
 <path d="M14468 283 c7 -3 16 -2 19 1 4 3 -2 6 -13 5 -11 0 -14 -3 -6 -6z"/>
 <path d="M14953 283 c4 -3 10 -3 14 0 3 4 0 7 -7 7 -7 0 -10 -3 -7 -7z"/>
 <path d="M11350 270 c0 -7 3 -10 7 -7 3 4 3 10 0 14 -4 3 -7 0 -7 -7z"/>
 <path d="M12570 270 c0 -7 3 -10 7 -7 3 4 3 10 0 14 -4 3 -7 0 -7 -7z"/>
 <path d="M13511 258 c1 -17 2 -19 6 -5 2 9 8 17 13 17 5 0 14 -8 19 -17 6 -10 11 -13 11 -7 0 14 -21 34 -37 34 -7 0 -12 -10 -12 -22z"/>
 <path d="M14523 273 c4 -3 10 -3 14 0 3 4 0 7 -7 7 -7 0 -10 -3 -7 -7z"/>
 <path d="M14993 273 c4 -3 10 -3 14 0 3 4 0 7 -7 7 -7 0 -10 -3 -7 -7z"/>
 <path d="M12791 263 c-1 -6 -4 -20 -7 -30 -5 -17 -5 -17 6 0 6 10 9 23 6 30 -3 9 -5 9 -5 0z"/>
 <path d="M14563 263 c4 -3 10 -3 14 0 3 4 0 7 -7 7 -7 0 -10 -3 -7 -7z"/>
 <path d="M15043 263 c4 -3 10 -3 14 0 3 4 0 7 -7 7 -7 0 -10 -3 -7 -7z"/>
 <path d="M11130 250 c0 -7 3 -10 7 -7 3 4 3 10 0 14 -4 3 -7 0 -7 -7z"/>
 <path d="M14608 253 c7 -3 16 -2 19 1 4 3 -2 6 -13 5 -11 0 -14 -3 -6 -6z"/>
 <path d="M15083 253 c4 -3 10 -3 14 0 3 4 0 7 -7 7 -7 0 -10 -3 -7 -7z"/>
 <path d="M10413 243 c4 -3 10 -3 14 0 3 4 0 7 -7 7 -7 0 -10 -3 -7 -7z"/>
 <path d="M11340 240 c0 -7 3 -10 7 -7 3 4 3 10 0 14 -4 3 -7 0 -7 -7z"/>
 <path d="M12020 240 c0 -7 3 -10 7 -7 3 4 3 10 0 14 -4 3 -7 0 -7 -7z"/>
 <path d="M13890 241 c0 -6 4 -13 10 -16 6 -3 7 1 4 9 -7 18 -14 21 -14 7z"/>
 <path d="M14668 243 c7 -3 16 -2 19 1 4 3 -2 6 -13 5 -11 0 -14 -3 -6 -6z"/>
 <path d="M15123 243 c4 -3 10 -3 14 0 3 4 0 7 -7 7 -7 0 -10 -3 -7 -7z"/>
 <path d="M15157 239 c7 -7 15 -10 18 -7 3 3 -2 9 -12 12 -14 6 -15 5 -6 -5z"/>
 <path d="M10465 230 c27 -12 43 -12 25 0 -8 5 -22 9 -30 9 -10 0 -8 -3 5 -9z"/>
 <path d="M12156 225 c-3 -9 -6 -22 -5 -28 0 -7 5 -1 10 12 5 13 8 26 5 28 -2 2 -6 -3 -10 -12z"/>
 <path d="M13281 213 c-10 -26 -10 -27 4 -9 8 11 15 23 15 28 0 15 -7 8 -19 -19z"/>
 <path d="M15208 228 c5 -5 16 -8 23 -6 8 3 3 7 -10 11 -17 4 -21 3 -13 -5z"/>
 <path d="M12191 223 c-1 -6 -4 -20 -7 -30 -5 -17 -5 -17 6 0 6 10 9 23 6 30 -3 9 -5 9 -5 0z"/>
 <path d="M13575 220 c3 -5 8 -10 11 -10 3 0 2 5 -1 10 -3 6 -8 10 -11 10 -3 0 -2 -4 1 -10z"/>
 <path d="M14763 223 c4 -3 10 -3 14 0 3 4 0 7 -7 7 -7 0 -10 -3 -7 -7z"/>
 <path d="M10393 213 c4 -3 10 -3 14 0 3 4 0 7 -7 7 -7 0 -10 -3 -7 -7z"/>
 <path d="M10535 210 c27 -12 43 -12 25 0 -8 5 -22 9 -30 9 -10 0 -8 -3 5 -9z"/>
 <path d="M11140 210 c0 -7 3 -10 7 -7 3 4 3 10 0 14 -4 3 -7 0 -7 -7z"/>
 <path d="M13510 210 c0 -7 3 -10 7 -7 3 4 3 10 0 14 -4 3 -7 0 -7 -7z"/>
 <path d="M14818 213 c7 -3 16 -2 19 1 4 3 -2 6 -13 5 -11 0 -14 -3 -6 -6z"/>
 <path d="M15263 213 c4 -3 10 -3 14 0 3 4 0 7 -7 7 -7 0 -10 -3 -7 -7z"/>
 <path d="M10423 203 c4 -3 10 -3 14 0 3 4 0 7 -7 7 -7 0 -10 -3 -7 -7z"/>
 <path d="M11330 200 c0 -7 3 -10 7 -7 3 4 3 10 0 14 -4 3 -7 0 -7 -7z"/>
 <path d="M12550 200 c0 -7 3 -10 7 -7 3 4 3 10 0 14 -4 3 -7 0 -7 -7z"/>
 <path d="M13763 200 c-31 -13 -29 -22 2 -10 17 6 25 6 25 -1 0 -6 5 -7 10 -4 11 7 4 25 -8 24 -4 0 -17 -4 -29 -9z"/>
 <path d="M14873 203 c4 -3 10 -3 14 0 3 4 0 7 -7 7 -7 0 -10 -3 -7 -7z"/>
 <path d="M15303 203 c4 -3 10 -3 14 0 3 4 0 7 -7 7 -7 0 -10 -3 -7 -7z"/>
 <path d="M10463 193 c4 -3 10 -3 14 0 3 4 0 7 -7 7 -7 0 -10 -3 -7 -7z"/>
 <path d="M10605 190 c27 -12 43 -12 25 0 -8 5 -22 9 -30 9 -10 0 -8 -3 5 -9z"/>
 <path d="M12771 193 c-1 -6 -4 -20 -7 -30 -5 -17 -5 -17 6 0 6 10 9 23 6 30 -3 9 -5 9 -5 0z"/>
 <path d="M14923 193 c4 -3 10 -3 14 0 3 4 0 7 -7 7 -7 0 -10 -3 -7 -7z"/>
 <path d="M15343 193 c4 -3 10 -3 14 0 3 4 0 7 -7 7 -7 0 -10 -3 -7 -7z"/>
 <path d="M10493 183 c4 -3 10 -3 14 0 3 4 0 7 -7 7 -7 0 -10 -3 -7 -7z"/>
 <path d="M11203 183 c4 -3 10 -3 14 0 3 4 0 7 -7 7 -7 0 -10 -3 -7 -7z"/>
 <path d="M11710 170 c6 -11 13 -20 16 -20 2 0 0 9 -6 20 -6 11 -13 20 -16 20 -2 0 0 -9 6 -20z"/>
 <path d="M14970 186 c0 -2 9 -6 20 -9 11 -3 18 -1 14 4 -5 9 -34 13 -34 5z"/>
 <path d="M15393 183 c4 -3 10 -3 14 0 3 4 0 7 -7 7 -7 0 -10 -3 -7 -7z"/>
 <path d="M15437 179 c7 -7 15 -10 18 -7 3 3 -2 9 -12 12 -14 6 -15 5 -6 -5z"/>
 <path d="M10533 173 c4 -3 10 -3 14 0 3 4 0 7 -7 7 -7 0 -10 -3 -7 -7z"/>
 <path d="M10675 170 c27 -12 43 -12 25 0 -8 5 -22 9 -30 9 -10 0 -8 -3 5 -9z"/>
 <path d="M11320 170 c0 -7 3 -10 7 -7 3 4 3 10 0 14 -4 3 -7 0 -7 -7z"/>
 <path d="M12000 170 c0 -7 3 -10 7 -7 3 4 3 10 0 14 -4 3 -7 0 -7 -7z"/>
 <path d="M13622 164 c9 -9 21 -15 27 -13 6 2 -2 10 -17 17 -25 11 -25 11 -10 -4z"/>
 <path d="M13703 173 c4 -3 10 -3 14 0 3 4 0 7 -7 7 -7 0 -10 -3 -7 -7z"/>
 <path d="M13930 170 c0 -7 3 -10 7 -7 3 4 3 10 0 14 -4 3 -7 0 -7 -7z"/>
 <path d="M15033 173 c4 -3 10 -3 14 0 3 4 0 7 -7 7 -7 0 -10 -3 -7 -7z"/>
 <path d="M10563 163 c4 -3 10 -3 14 0 3 4 0 7 -7 7 -7 0 -10 -3 -7 -7z"/>
 <path d="M11273 163 c4 -3 10 -3 14 0 3 4 0 7 -7 7 -7 0 -10 -3 -7 -7z"/>
 <path d="M12136 155 c-3 -9 -6 -22 -5 -28 0 -7 5 -1 10 12 5 13 8 26 5 28 -2 2 -6 -3 -10 -12z"/>
 <path d="M13673 163 c4 -3 10 -3 14 0 3 4 0 7 -7 7 -7 0 -10 -3 -7 -7z"/>
 <path d="M15073 163 c4 -3 10 -3 14 0 3 4 0 7 -7 7 -7 0 -10 -3 -7 -7z"/>
 <path d="M15493 163 c4 -3 10 -3 14 0 3 4 0 7 -7 7 -7 0 -10 -3 -7 -7z"/>
 <path d="M10745 150 c27 -12 43 -12 25 0 -8 5 -22 9 -30 9 -10 0 -8 -3 5 -9z"/>
 <path d="M12170 150 c0 -7 3 -10 7 -7 3 4 3 10 0 14 -4 3 -7 0 -7 -7z"/>
 <path d="M13260 150 c0 -7 3 -10 7 -7 3 4 3 10 0 14 -4 3 -7 0 -7 -7z"/>
 <path d="M14260 150 c-9 -6 -10 -10 -3 -10 6 0 15 5 18 10 8 12 4 12 -15 0z"/>
 <path d="M14323 153 c15 -2 37 -2 50 0 12 2 0 4 -28 4 -27 0 -38 -2 -22 -4z"/>
 <path d="M14418 148 c5 -5 16 -8 23 -6 8 3 3 7 -10 11 -17 4 -21 3 -13 -5z"/>
 <path d="M15138 153 c7 -3 16 -2 19 1 4 3 -2 6 -13 5 -11 0 -14 -3 -6 -6z"/>
 <path d="M15567 149 c7 -7 15 -10 18 -7 3 3 -2 9 -12 12 -14 6 -15 5 -6 -5z"/>
 <path d="M10633 143 c4 -3 10 -3 14 0 3 4 0 7 -7 7 -7 0 -10 -3 -7 -7z"/>
 <path d="M13940 140 c0 -7 3 -10 7 -7 3 4 3 10 0 14 -4 3 -7 0 -7 -7z"/>
 <path d="M14467 139 c7 -7 15 -10 18 -7 3 3 -2 9 -12 12 -14 6 -15 5 -6 -5z"/>
 <path d="M15193 143 c4 -3 10 -3 14 0 3 4 0 7 -7 7 -7 0 -10 -3 -7 -7z"/>
 <path d="M15618 138 c5 -5 16 -8 23 -6 8 3 3 7 -10 11 -17 4 -21 3 -13 -5z"/>
 <path d="M10673 133 c4 -3 10 -3 14 0 3 4 0 7 -7 7 -7 0 -10 -3 -7 -7z"/>
 <path d="M10803 133 c4 -3 10 -3 14 0 3 4 0 7 -7 7 -7 0 -10 -3 -7 -7z"/>
 <path d="M12530 130 c0 -7 3 -10 7 -7 3 4 3 10 0 14 -4 3 -7 0 -7 -7z"/>
 <path d="M14175 115 c-52 -32 -40 -32 16 0 24 14 40 25 34 25 -5 0 -28 -11 -50 -25z"/>
 <path d="M15243 133 c4 -3 10 -3 14 0 3 4 0 7 -7 7 -7 0 -10 -3 -7 -7z"/>
 <path d="M10703 123 c4 -3 10 -3 14 0 3 4 0 7 -7 7 -7 0 -10 -3 -7 -7z"/>
 <path d="M10833 123 c4 -3 10 -3 14 0 3 4 0 7 -7 7 -7 0 -10 -3 -7 -7z"/>
 <path d="M12737 73 c-9 -31 -15 -59 -12 -61 2 -2 11 21 20 53 9 31 15 58 12 61 -2 2 -11 -21 -20 -53z"/>
 <path d="M14527 119 c7 -7 15 -10 18 -7 3 3 -2 9 -12 12 -14 6 -15 5 -6 -5z"/>
 <path d="M15300 126 c0 -2 9 -6 20 -9 11 -3 18 -1 14 4 -5 9 -34 13 -34 5z"/>
 <path d="M15683 123 c4 -3 10 -3 14 0 3 4 0 7 -7 7 -7 0 -10 -3 -7 -7z"/>
 <path d="M10743 113 c4 -3 10 -3 14 0 3 4 0 7 -7 7 -7 0 -10 -3 -7 -7z"/>
 <path d="M10873 113 c4 -3 10 -3 14 0 3 4 0 7 -7 7 -7 0 -10 -3 -7 -7z"/>
 <path d="M13250 110 c0 -7 3 -10 7 -7 3 4 3 10 0 14 -4 3 -7 0 -7 -7z"/>
 <path d="M13727 91 c-9 -16 -17 -35 -17 -42 0 -7 9 4 20 26 23 46 21 57 -3 16z"/>
 <path d="M15353 113 c4 -3 10 -3 14 0 3 4 0 7 -7 7 -7 0 -10 -3 -7 -7z"/>
 <path d="M15733 113 c4 -3 10 -3 14 0 3 4 0 7 -7 7 -7 0 -10 -3 -7 -7z"/>
 <path d="M10773 103 c4 -3 10 -3 14 0 3 4 0 7 -7 7 -7 0 -10 -3 -7 -7z"/>
 <path d="M10903 103 c4 -3 10 -3 14 0 3 4 0 7 -7 7 -7 0 -10 -3 -7 -7z"/>
 <path d="M11981 103 c-1 -6 -4 -20 -7 -30 -5 -17 -5 -17 6 0 6 10 9 23 6 30 -3 9 -5 9 -5 0z"/>
 <path d="M13503 103 c4 -3 10 -3 14 0 3 4 0 7 -7 7 -7 0 -10 -3 -7 -7z"/>
 <path d="M14584 96 c11 -9 24 -16 30 -16 12 0 7 5 -24 19 -24 11 -24 11 -6 -3z"/>
 <path d="M15403 103 c4 -3 10 -3 14 0 3 4 0 7 -7 7 -7 0 -10 -3 -7 -7z"/>
 <path d="M15773 103 c4 -3 10 -3 14 0 3 4 0 7 -7 7 -7 0 -10 -3 -7 -7z"/>
 <path d="M11750 90 c0 -7 3 -10 7 -7 3 4 3 10 0 14 -4 3 -7 0 -7 -7z"/>
 <path d="M12116 85 c-3 -9 -6 -22 -5 -28 0 -7 5 -1 10 12 5 13 8 26 5 28 -2 2 -6 -3 -10 -12z"/>
 <path d="M13473 93 c4 -3 10 -3 14 0 3 4 0 7 -7 7 -7 0 -10 -3 -7 -7z"/>
 <path d="M15473 93 c4 -3 10 -3 14 0 3 4 0 7 -7 7 -7 0 -10 -3 -7 -7z"/>
 <path d="M15818 93 c7 -3 16 -2 19 1 4 3 -2 6 -13 5 -11 0 -14 -3 -6 -6z"/>
 <path d="M10843 83 c4 -3 10 -3 14 0 3 4 0 7 -7 7 -7 0 -10 -3 -7 -7z"/>
 <path d="M10973 83 c4 -3 10 -3 14 0 3 4 0 7 -7 7 -7 0 -10 -3 -7 -7z"/>
 <path d="M12151 83 c-1 -6 -4 -20 -7 -30 -5 -17 -5 -17 6 0 6 10 9 23 6 30 -3 9 -5 9 -5 0z"/>
 <path d="M13443 83 c4 -3 10 -3 14 0 3 4 0 7 -7 7 -7 0 -10 -3 -7 -7z"/>
 <path d="M15523 83 c4 -3 10 -3 14 0 3 4 0 7 -7 7 -7 0 -10 -3 -7 -7z"/>
 <path d="M15873 83 c4 -3 10 -3 14 0 3 4 0 7 -7 7 -7 0 -10 -3 -7 -7z"/>
 <path d="M10883 73 c4 -3 10 -3 14 0 3 4 0 7 -7 7 -7 0 -10 -3 -7 -7z"/>
 <path d="M13387 68 c-29 -10 -32 -29 -6 -36 12 -3 12 -2 0 6 -12 8 -8 14 20 25 38 17 29 21 -14 5z"/>
 <path d="M15583 73 c4 -3 10 -3 14 0 3 4 0 7 -7 7 -7 0 -10 -3 -7 -7z"/>
 <path d="M15923 73 c4 -3 10 -3 14 0 3 4 0 7 -7 7 -7 0 -10 -3 -7 -7z"/>
 <path d="M10913 63 c4 -3 10 -3 14 0 3 4 0 7 -7 7 -7 0 -10 -3 -7 -7z"/>
 <path d="M11043 63 c4 -3 10 -3 14 0 3 4 0 7 -7 7 -7 0 -10 -3 -7 -7z"/>
 <path d="M11760 60 c0 -7 3 -10 7 -7 3 4 3 10 0 14 -4 3 -7 0 -7 -7z"/>
 <path d="M12510 60 c0 -7 3 -10 7 -7 3 4 3 10 0 14 -4 3 -7 0 -7 -7z"/>
 <path d="M14640 66 c0 -2 8 -10 18 -17 15 -13 16 -12 3 4 -13 16 -21 21 -21 13z"/>
 <path d="M15643 63 c4 -3 10 -3 14 0 3 4 0 7 -7 7 -7 0 -10 -3 -7 -7z"/>
 <path d="M15963 63 c4 -3 10 -3 14 0 3 4 0 7 -7 7 -7 0 -10 -3 -7 -7z"/>
 <path d="M11083 53 c4 -3 10 -3 14 0 3 4 0 7 -7 7 -7 0 -10 -3 -7 -7z"/>
 <path d="M14096 43 c-6 -14 -5 -15 5 -6 7 7 10 15 7 18 -3 3 -9 -2 -12 -12z"/>
 <path d="M15688 53 c7 -3 16 -2 19 1 4 3 -2 6 -13 5 -11 0 -14 -3 -6 -6z"/>
 <path d="M10983 43 c4 -3 10 -3 14 0 3 4 0 7 -7 7 -7 0 -10 -3 -7 -7z"/>
 <path d="M11125 40 c27 -12 43 -12 25 0 -8 5 -22 9 -30 9 -10 0 -8 -3 5 -9z"/>
 <path d="M15758 43 c7 -3 16 -2 19 1 4 3 -2 6 -13 5 -11 0 -14 -3 -6 -6z"/>
 <path d="M11960 30 c0 -7 3 -10 7 -7 3 4 3 10 0 14 -4 3 -7 0 -7 -7z"/>
 <path d="M15803 33 c4 -3 10 -3 14 0 3 4 0 7 -7 7 -7 0 -10 -3 -7 -7z"/>
 <path d="M11053 23 c4 -3 10 -3 14 0 3 4 0 7 -7 7 -7 0 -10 -3 -7 -7z"/>
 <path d="M11183 23 c4 -3 10 -3 14 0 3 4 0 7 -7 7 -7 0 -10 -3 -7 -7z"/>
 <path d="M13403 23 c4 -3 10 -3 14 0 3 4 0 7 -7 7 -7 0 -10 -3 -7 -7z"/>
 <path d="M13730 26 c0 -2 8 -10 18 -17 15 -13 16 -12 3 4 -13 16 -21 21 -21 13z"/>
 <path d="M15870 26 c0 -2 9 -6 20 -9 11 -3 18 -1 14 4 -5 9 -34 13 -34 5z"/>
 <path d="M13443 13 c4 -3 10 -3 14 0 3 4 0 7 -7 7 -7 0 -10 -3 -7 -7z"/>
 <path d="M14373 3 c4 -3 10 -3 14 0 3 4 0 7 -7 7 -7 0 -10 -3 -7 -7z"/>
 <path d="M15983 3 c4 -3 10 -3 14 0 3 4 0 7 -7 7 -7 0 -10 -3 -7 -7z"/>
 </g>

</svg>